<svg width="17" height="16" viewBox="0 0 17 16" fill="none" xmlns="http://www.w3.org/2000/svg">
<path fill-rule="evenodd" clip-rule="evenodd" d="M5.50515 1.33398L6.99935 1.33398C7.36754 1.33398 7.66602 1.63246 7.66602 2.00065C7.66602 2.36884 7.36754 2.66732 6.99935 2.66732H5.53268C4.96163 2.66732 4.57343 2.66784 4.27337 2.69235C3.9811 2.71623 3.83163 2.75952 3.72736 2.81264C3.47648 2.94047 3.27251 3.14445 3.14467 3.39533C3.09155 3.4996 3.04826 3.64907 3.02438 3.94134C2.99987 4.2414 2.99935 4.6296 2.99935 5.20065V10.8007C2.99935 11.3717 2.99987 11.7599 3.02438 12.06C3.04826 12.3522 3.09155 12.5017 3.14467 12.606C3.27251 12.8569 3.47648 13.0608 3.72736 13.1887C3.83163 13.2418 3.9811 13.2851 4.27337 13.3089C4.57343 13.3335 4.96163 13.334 5.53268 13.334H11.1327C11.7037 13.334 12.0919 13.3335 12.392 13.3089C12.6843 13.2851 12.8337 13.2418 12.938 13.1887C13.1889 13.0608 13.3929 12.8569 13.5207 12.606C13.5738 12.5017 13.6171 12.3522 13.641 12.06C13.6655 11.7599 13.666 11.3717 13.666 10.8007V9.33398C13.666 8.96579 13.9645 8.66732 14.3327 8.66732C14.7009 8.66732 14.9993 8.96579 14.9993 9.33398V10.8282C14.9994 11.3648 14.9994 11.8077 14.9699 12.1685C14.9393 12.5433 14.8736 12.8877 14.7087 13.2113C14.453 13.7131 14.0451 14.121 13.5433 14.3767C13.2198 14.5415 12.8753 14.6072 12.5006 14.6379C12.1398 14.6673 11.6969 14.6673 11.1602 14.6673H5.50513C4.96849 14.6673 4.52559 14.6673 4.1648 14.6379C3.79007 14.6072 3.4456 14.5415 3.12204 14.3767C2.62028 14.121 2.21233 13.7131 1.95667 13.2113C1.7918 12.8877 1.7261 12.5433 1.69548 12.1685C1.666 11.8077 1.66601 11.3648 1.66602 10.8282V5.17312C1.66601 4.63647 1.666 4.19356 1.69548 3.83277C1.7261 3.45804 1.7918 3.11357 1.95667 2.79001C2.21233 2.28824 2.62028 1.8803 3.12204 1.62463C3.4456 1.45977 3.79007 1.39406 4.1648 1.36345C4.5256 1.33397 4.9685 1.33398 5.50515 1.33398ZM9.666 2.00066C9.666 1.63247 9.96448 1.33399 10.3327 1.33399H14.3327C14.7009 1.33399 14.9993 1.63247 14.9993 2.00066L14.9993 6.00066C14.9993 6.36885 14.7009 6.66732 14.3327 6.66732C13.9645 6.66732 13.666 6.36885 13.666 6.00066L13.666 3.61013L8.80409 8.47206C8.54374 8.7324 8.12163 8.73241 7.86128 8.47206C7.60093 8.21171 7.60093 7.7896 7.86128 7.52925L12.7232 2.66732H10.3327C9.96448 2.66732 9.666 2.36885 9.666 2.00066Z" fill="white" fill-opacity="0.64"/>
</svg>
