<svg width="49" height="48" viewBox="0 0 49 48" fill="none" xmlns="http://www.w3.org/2000/svg">
<path fill-rule="evenodd" clip-rule="evenodd" d="M26.3548 0.0300541C27.1046 0.0932974 27.7702 0.23183 28.4237 0.454687C28.8393 0.596232 29.5681 0.945575 29.9536 1.18951C30.6282 1.61415 31.5226 2.38511 31.872 2.84589C32.2785 3.37894 32.7062 4.40287 32.908 5.33647L32.9923 5.72195H33.2965C34.0132 5.72195 34.6848 6.02311 35.3052 6.6194C36.6514 7.91739 37.4585 10.3959 37.7386 14.0942C37.7897 14.7447 37.853 14.9163 38.1361 15.1392C38.389 15.344 38.7143 15.4614 39.5455 15.6511C40.9218 15.9643 41.3314 16.142 41.8193 16.6359C42.28 17.0997 42.7047 17.8074 42.9305 18.4911C43.1323 19.0964 43.2076 19.6535 43.1805 20.3432C43.1504 21.1172 42.9998 21.8098 42.6173 22.9181C42.5029 23.2584 42.4065 23.5716 42.4065 23.6168C42.4065 23.674 42.4728 23.7915 42.5962 23.9661C43.828 25.6707 44.7796 27.6162 45.3097 29.5135C46.171 32.5973 46.0746 35.895 45.0386 38.75C44.2074 41.0418 42.7589 42.6922 40.2683 44.1829C39.6599 44.5473 39.166 44.8123 38.2204 45.2731C34.748 46.9746 31.7877 47.7757 28.246 47.9775C27.5172 48.0197 24.7978 47.9986 24.066 47.9474C21.3495 47.7546 17.5368 47.0469 14.5222 46.1796C12.893 45.7098 11.9052 45.3243 10.7728 44.7159C9.30919 43.9269 8.21297 43.1198 7.20108 42.0838C5.92417 40.7768 5.05081 39.3102 4.52378 37.5845C4.13228 36.3136 4.01784 34.1302 4.23467 32.1185C4.43645 30.2694 4.94239 28.3901 5.70734 26.6434C5.8007 26.4296 5.87598 26.2519 5.87598 26.2429C5.87598 26.2369 5.79166 26.1887 5.68927 26.1375C5.18031 25.8785 4.69846 25.5322 4.23768 25.0864C3.43359 24.3064 2.97583 23.4813 2.81923 22.5115C2.75297 22.111 2.76201 21.4063 2.83428 20.9726C3.03004 19.8312 3.61127 18.5935 4.32803 17.8044C5.37606 16.645 6.99629 16.0186 8.94178 16.0155C9.25799 16.0155 9.52 16.0095 9.52 16.0035C9.52 16.0005 9.57421 15.7957 9.64047 15.5487C9.91151 14.5369 10.2157 13.1425 10.4687 11.7722C10.7246 10.3809 10.8963 9.68218 11.2125 8.76365C11.7305 7.26689 12.384 6.13152 13.2062 5.31538C14.0826 4.44203 15.1125 4.03546 16.2328 4.11376C16.4406 4.12882 16.7689 4.14087 16.9586 4.14087C17.2748 4.14087 17.32 4.13484 17.4796 4.05955C17.7537 3.93006 18.0036 3.66504 18.4042 3.07175C18.9704 2.23453 19.3408 1.82496 19.8949 1.43044C20.5906 0.933529 21.5151 0.584186 22.8613 0.30712C24.1473 0.0390888 25.3549 -0.0542702 26.3548 0.0300541ZM18.2566 16.6148C18.9161 16.1782 19.7684 15.8981 20.6177 15.8409C20.7984 15.8288 21.0182 15.8258 21.0995 15.8288C21.6386 15.862 21.7802 15.88 22.0572 15.9342C22.4638 16.0155 22.9878 16.1872 23.7196 16.4793C24.4906 16.7895 24.9152 16.9341 25.4272 17.0606C26.9631 17.44 27.6166 17.3918 28.9598 16.8046C30.2999 16.2173 30.6011 16.1179 31.0829 16.0908C31.6401 16.0637 32.3147 16.2143 32.8658 16.4914C33.6157 16.8678 34.2963 17.5484 34.6396 18.2712C34.8053 18.6206 35.0703 19.4457 35.1847 19.9758C35.2751 20.3944 35.2811 21.2677 35.1998 21.6532C35.0673 22.2555 34.736 23.0747 34.4559 23.4933C34.2722 23.7674 33.8205 24.204 33.5464 24.3757C32.6339 24.9419 31.363 25.0955 29.6675 24.8425C29.4446 24.8094 28.9236 24.716 28.508 24.6347C27.5925 24.457 27.3124 24.4239 26.68 24.4239C25.8097 24.4239 25.1682 24.5082 23.4486 24.8455C21.8585 25.1587 21.6446 25.1858 20.8285 25.1888C20.2714 25.1918 20.0756 25.1798 19.8347 25.1346C19.401 25.0533 18.9673 24.9057 18.4674 24.6618C16.8833 23.8969 16.0551 22.8609 15.7992 21.325C15.6275 20.298 16.0973 19.0151 17.1152 17.7291C17.4555 17.3015 17.9494 16.8196 18.2566 16.6148Z" fill="white"/>
</svg>
