<svg width="25" height="24" viewBox="0 0 25 24" fill="none" xmlns="http://www.w3.org/2000/svg">
<path fill-rule="evenodd" clip-rule="evenodd" d="M9.42521 1H15.9078C16.7128 0.999988 17.3771 0.999977 17.9183 1.04419C18.4804 1.09012 18.9971 1.18868 19.4825 1.43597C20.2351 1.81947 20.847 2.43139 21.2305 3.18404C21.4778 3.66937 21.5764 4.18608 21.6223 4.74817C21.6665 5.28936 21.6665 5.95372 21.6665 6.75868V12C21.6665 12.5523 21.2188 13 20.6665 13C20.1142 13 19.6665 12.5523 19.6665 12V6.8C19.6665 5.94342 19.6657 5.36113 19.629 4.91104C19.5931 4.47262 19.5282 4.24842 19.4485 4.09202C19.2568 3.7157 18.9508 3.40973 18.5745 3.21799C18.4181 3.1383 18.1939 3.07337 17.7555 3.03755C17.3054 3.00078 16.7231 3 15.8665 3H9.46651C8.60993 3 8.02763 3.00078 7.57754 3.03755C7.13913 3.07337 6.91492 3.1383 6.75852 3.21799C6.3822 3.40973 6.07624 3.7157 5.88449 4.09202C5.8048 4.24842 5.73988 4.47262 5.70406 4.91104C5.66728 5.36113 5.6665 5.94342 5.6665 6.8V17.2C5.6665 18.0566 5.66728 18.6389 5.70406 19.089C5.73988 19.5274 5.8048 19.7516 5.88449 19.908C6.07624 20.2843 6.3822 20.5903 6.75852 20.782C6.91492 20.8617 7.13913 20.9266 7.57754 20.9624C8.02763 20.9992 8.60993 21 9.46651 21H12.6665C13.2188 21 13.6665 21.4477 13.6665 22C13.6665 22.5523 13.2188 23 12.6665 23H9.42518C8.62022 23 7.95587 23 7.41468 22.9558C6.85258 22.9099 6.33588 22.8113 5.85054 22.564C5.0979 22.1805 4.48597 21.5686 4.10248 20.816C3.85519 20.3306 3.75662 19.8139 3.7107 19.2518C3.66648 18.7106 3.66649 18.0463 3.6665 17.2413V6.7587C3.66649 5.95373 3.66648 5.28937 3.7107 4.74817C3.75662 4.18608 3.85519 3.66937 4.10248 3.18404C4.48597 2.43139 5.09789 1.81947 5.85054 1.43597C6.33588 1.18868 6.85258 1.09012 7.41468 1.04419C7.95587 0.999977 8.62024 0.999988 9.42521 1ZM7.6665 7C7.6665 6.44772 8.11422 6 8.6665 6H16.6665C17.2188 6 17.6665 6.44772 17.6665 7C17.6665 7.55229 17.2188 8 16.6665 8H8.6665C8.11422 8 7.6665 7.55229 7.6665 7ZM7.6665 11C7.6665 10.4477 8.11422 10 8.6665 10H14.6665C15.2188 10 15.6665 10.4477 15.6665 11C15.6665 11.5523 15.2188 12 14.6665 12H8.6665C8.11422 12 7.6665 11.5523 7.6665 11ZM7.6665 15C7.6665 14.4477 8.11422 14 8.6665 14H10.6665C11.2188 14 11.6665 14.4477 11.6665 15C11.6665 15.5523 11.2188 16 10.6665 16H8.6665C8.11422 16 7.6665 15.5523 7.6665 15ZM19.1665 17.0858L20.9594 15.2929C21.3499 14.9024 21.9831 14.9024 22.3736 15.2929C22.7641 15.6834 22.7641 16.3166 22.3736 16.7071L20.5807 18.5L22.3736 20.2929C22.7641 20.6834 22.7641 21.3166 22.3736 21.7071C21.9831 22.0976 21.3499 22.0976 20.9594 21.7071L19.1665 19.9142L17.3736 21.7071C16.9831 22.0976 16.3499 22.0976 15.9594 21.7071C15.5689 21.3166 15.5689 20.6834 15.9594 20.2929L17.7523 18.5L15.9594 16.7071C15.5689 16.3166 15.5689 15.6834 15.9594 15.2929C16.3499 14.9024 16.9831 14.9024 17.3736 15.2929L19.1665 17.0858Z" fill="white"/>
</svg>
