<svg width="25" height="24" viewBox="0 0 25 24" fill="none" xmlns="http://www.w3.org/2000/svg">
<path fill-rule="evenodd" clip-rule="evenodd" d="M6.90219 1C6.91281 1 6.92344 1.00001 6.93409 1.00001L17.766 1C18.0184 0.999972 18.2642 0.999943 18.4723 1.01695C18.7009 1.03563 18.9706 1.07969 19.2421 1.21799C19.6184 1.40974 19.9244 1.7157 20.1161 2.09203C20.2544 2.36345 20.2985 2.63318 20.3171 2.86178C20.3341 3.06994 20.3341 3.31573 20.3341 3.56811L20.3341 5.67452C20.3341 5.70252 20.3341 5.73029 20.3341 5.75783C20.3345 6.16472 20.3349 6.52347 20.2512 6.87191C20.1777 7.17802 20.0565 7.47066 19.892 7.73907C19.7048 8.04461 19.4509 8.29805 19.1629 8.58551C19.1434 8.60496 19.1237 8.62457 19.1039 8.64437L16.1726 11.5757C15.9629 11.7854 15.8487 11.9007 15.773 11.9899C15.77 11.9934 15.7672 11.9968 15.7645 12C15.7672 12.0032 15.77 12.0066 15.773 12.0101C15.8487 12.0993 15.9629 12.2146 16.1726 12.4243L19.1039 15.3556C19.1237 15.3754 19.1434 15.395 19.1629 15.4145C19.4509 15.702 19.7048 15.9554 19.892 16.2609C20.0565 16.5294 20.1777 16.822 20.2512 17.1281C20.3348 17.4765 20.3345 17.8353 20.3341 18.2422C20.3341 18.2697 20.3341 18.2975 20.3341 18.3255L20.3341 20.4319C20.3341 20.6843 20.3341 20.9301 20.3171 21.1382C20.2985 21.3668 20.2544 21.6366 20.1161 21.908C19.9244 22.2843 19.6184 22.5903 19.2421 22.782C18.9706 22.9203 18.7009 22.9644 18.4723 22.9831C18.2642 23.0001 18.0184 23 17.766 23H6.90215C6.64978 23 6.404 23.0001 6.19586 22.9831C5.96726 22.9644 5.69753 22.9203 5.4261 22.782C5.04978 22.5903 4.74382 22.2843 4.55207 21.908C4.41378 21.6366 4.36971 21.3668 4.35103 21.1382C4.33402 20.9301 4.33405 20.6843 4.33408 20.4319L4.33409 18.3255C4.33409 18.2975 4.33406 18.2697 4.33403 18.2422C4.33366 17.8353 4.33332 17.4765 4.41698 17.1281C4.49047 16.822 4.61168 16.5294 4.77617 16.2609C4.9634 15.9554 5.21731 15.702 5.5053 15.4145C5.52479 15.3951 5.54444 15.3754 5.56424 15.3556L8.49561 12.4243C8.70529 12.2146 8.81947 12.0993 8.89517 12.0101C8.89818 12.0066 8.90102 12.0032 8.90368 12C8.90102 11.9968 8.89818 11.9934 8.89517 11.9899C8.81946 11.9007 8.70528 11.7854 8.49561 11.5757L5.56424 8.64437C5.54444 8.62457 5.52478 8.60495 5.50529 8.58549C5.21731 8.29805 4.9634 8.04461 4.77617 7.73907C4.61168 7.47066 4.49047 7.17802 4.41698 6.87191C4.33332 6.52347 4.33366 6.16472 4.33403 5.75783C4.33406 5.73028 4.33409 5.70252 4.33409 5.67452V3.6C4.33409 3.58936 4.33408 3.57873 4.33408 3.56811C4.33405 3.31572 4.33402 3.06993 4.35103 2.86178C4.36971 2.63318 4.41378 2.36345 4.55207 2.09202C4.74382 1.7157 5.04978 1.40974 5.42611 1.21799C5.69753 1.07969 5.96726 1.03563 6.19586 1.01695C6.40401 0.999943 6.64981 0.999972 6.90219 1ZM6.34553 3.01145C6.34515 3.0156 6.34477 3.02 6.34439 3.02464C6.33486 3.14122 6.33409 3.30348 6.33409 3.6V5.67452C6.33409 6.2113 6.34051 6.3167 6.36172 6.40502C6.38621 6.50706 6.42662 6.6046 6.48145 6.69408C6.5289 6.77152 6.59889 6.8506 6.97845 7.23016L9.93237 10.1841C10.1109 10.3625 10.2847 10.5363 10.4198 10.6955C10.5683 10.8704 10.7279 11.0923 10.822 11.382C10.9525 11.7837 10.9525 12.2164 10.822 12.618C10.7279 12.9078 10.5683 13.1296 10.4198 13.3045C10.2847 13.4637 10.1109 13.6375 9.93239 13.8159L6.97845 16.7699C6.59889 17.1494 6.5289 17.2285 6.48145 17.3059C6.42662 17.3954 6.38621 17.493 6.36172 17.595C6.34051 17.6833 6.33409 17.7887 6.33409 18.3255V20.4C6.33409 20.6965 6.33486 20.8588 6.34439 20.9754C6.34477 20.98 6.34515 20.9844 6.34553 20.9886C6.34968 20.9889 6.35408 20.9893 6.35872 20.9897C6.47531 20.9992 6.63756 21 6.93409 21H17.7341C18.0306 21 18.1929 20.9992 18.3095 20.9897C18.3141 20.9893 18.3185 20.9889 18.3226 20.9886C18.323 20.9844 18.3234 20.98 18.3238 20.9754C18.3333 20.8588 18.3341 20.6965 18.3341 20.4V18.3255C18.3341 17.7887 18.3277 17.6833 18.3065 17.595C18.282 17.493 18.2416 17.3954 18.1867 17.3059C18.1393 17.2285 18.0693 17.1494 17.6897 16.7699L14.7358 13.8159C14.5573 13.6375 14.3835 13.4637 14.2483 13.3045C14.0999 13.1296 13.9403 12.9078 13.8462 12.618C13.7157 12.2164 13.7157 11.7837 13.8462 11.382C13.9403 11.0923 14.0999 10.8704 14.2483 10.6955C14.3835 10.5363 14.5573 10.3625 14.7358 10.1841L17.6897 7.23016C18.0693 6.8506 18.1393 6.77152 18.1867 6.69408C18.2416 6.6046 18.282 6.50706 18.3065 6.40503C18.3277 6.31671 18.3341 6.2113 18.3341 5.67452V3.6C18.3341 3.30348 18.3333 3.14122 18.3238 3.02464C18.3234 3.02 18.323 3.0156 18.3226 3.01145C18.3185 3.01107 18.3141 3.01069 18.3095 3.01031C18.1929 3.00078 18.0306 3.00001 17.7341 3.00001H6.93409C6.63756 3.00001 6.47531 3.00078 6.35872 3.01031C6.35408 3.01069 6.34968 3.01107 6.34553 3.01145ZM8.33409 18.5C8.33409 17.9477 8.7818 17.5 9.33409 17.5H15.3341C15.8864 17.5 16.3341 17.9477 16.3341 18.5C16.3341 19.0523 15.8864 19.5 15.3341 19.5H9.33409C8.7818 19.5 8.33409 19.0523 8.33409 18.5Z" fill="white"/>
</svg>
