<svg xmlns="http://www.w3.org/2000/svg" width="48" height="48" viewBox="0 0 48 48" fill="none">
  <path fill-rule="evenodd" clip-rule="evenodd" d="M26.0208 0.0300541C26.7707 0.0932974 27.4362 0.23183 28.0897 0.454687C28.5053 0.596232 29.2341 0.945575 29.6196 1.18951C30.2942 1.61415 31.1887 2.38511 31.538 2.84589C31.9446 3.37894 32.3722 4.40287 32.574 5.33647L32.6583 5.72195H32.9625C33.6792 5.72195 34.3508 6.02311 34.9712 6.6194C36.3174 7.91739 37.1245 10.3959 37.4046 14.0942C37.4558 14.7447 37.519 14.9163 37.8021 15.1392C38.0551 15.344 38.3803 15.4614 39.2115 15.6511C40.5878 15.9643 40.9974 16.142 41.4853 16.6359C41.946 17.0997 42.3707 17.8074 42.5965 18.4911C42.7983 19.0964 42.8736 19.6535 42.8465 20.3432C42.8164 21.1172 42.6658 21.8098 42.2833 22.9181C42.1689 23.2584 42.0725 23.5716 42.0725 23.6168C42.0725 23.674 42.1388 23.7915 42.2623 23.9661C43.494 25.6707 44.4456 27.6162 44.9757 29.5135C45.837 32.5973 45.7406 35.895 44.7046 38.75C43.8735 41.0418 42.4249 42.6922 39.9343 44.1829C39.326 44.5473 38.8321 44.8123 37.8864 45.2731C34.4141 46.9746 31.4537 47.7757 27.9121 47.9775C27.1832 48.0197 24.4638 47.9986 23.732 47.9474C21.0155 47.7546 17.2029 47.0469 14.1883 46.1796C12.559 45.7098 11.5712 45.3243 10.4388 44.7159C8.97521 43.9269 7.87899 43.1198 6.8671 42.0838C5.59019 40.7768 4.71683 39.3102 4.1898 37.5845C3.79829 36.3136 3.68385 34.1302 3.90069 32.1185C4.10246 30.2694 4.60841 28.3901 5.37335 26.6434C5.46671 26.4296 5.542 26.2519 5.542 26.2429C5.542 26.2369 5.45768 26.1887 5.35528 26.1375C4.84632 25.8785 4.36447 25.5322 3.9037 25.0864C3.09961 24.3064 2.64184 23.4813 2.48524 22.5115C2.41899 22.111 2.42802 21.4063 2.5003 20.9726C2.69605 19.8312 3.27729 18.5935 3.99405 17.8044C5.04208 16.645 6.66231 16.0186 8.60779 16.0155C8.92401 16.0155 9.18602 16.0095 9.18602 16.0035C9.18602 16.0005 9.24023 15.7957 9.30648 15.5487C9.57752 14.5369 9.88169 13.1425 10.1347 11.7722C10.3907 10.3809 10.5623 9.68218 10.8785 8.76365C11.3965 7.26689 12.05 6.13152 12.8722 5.31538C13.7486 4.44203 14.7785 4.03546 15.8988 4.11376C16.1066 4.12882 16.4349 4.14087 16.6246 4.14087C16.9408 4.14087 16.986 4.13484 17.1456 4.05955C17.4197 3.93006 17.6697 3.66504 18.0702 3.07175C18.6364 2.23453 19.0068 1.82496 19.5609 1.43044C20.2566 0.933529 21.1812 0.584186 22.5273 0.30712C23.8133 0.0390888 25.0209 -0.0542702 26.0208 0.0300541ZM17.9226 16.6148C18.5822 16.1782 19.4344 15.8981 20.2837 15.8409C20.4644 15.8288 20.6842 15.8258 20.7656 15.8288C21.3046 15.862 21.4462 15.88 21.7232 15.9342C22.1298 16.0155 22.6538 16.1872 23.3856 16.4793C24.1566 16.7895 24.5812 16.9341 25.0932 17.0606C26.6291 17.44 27.2826 17.3918 28.6258 16.8046C29.966 16.2173 30.2671 16.1179 30.749 16.0908C31.3061 16.0637 31.9807 16.2143 32.5318 16.4914C33.2817 16.8678 33.9623 17.5484 34.3056 18.2712C34.4713 18.6206 34.7363 19.4457 34.8507 19.9758C34.9411 20.3944 34.9471 21.2677 34.8658 21.6532C34.7333 22.2555 34.402 23.0747 34.1219 23.4933C33.9382 23.7674 33.4865 24.204 33.2124 24.3757C32.2999 24.9419 31.029 25.0955 29.3335 24.8425C29.1107 24.8094 28.5897 24.716 28.1741 24.6347C27.2585 24.457 26.9785 24.4239 26.346 24.4239C25.4757 24.4239 24.8342 24.5082 23.1146 24.8455C21.5245 25.1587 21.3107 25.1858 20.4945 25.1888C19.9374 25.1918 19.7416 25.1798 19.5007 25.1346C19.067 25.0533 18.6334 24.9057 18.1334 24.6618C16.5493 23.8969 15.7212 22.8609 15.4652 21.325C15.2935 20.298 15.7633 19.0151 16.7812 17.7291C17.1215 17.3015 17.6154 16.8196 17.9226 16.6148Z" fill="url(#paint0_linear_23026_13403)"/>
  <defs>
    <linearGradient id="paint0_linear_23026_13403" x1="23.9994" y1="0" x2="23.9994" y2="48" gradientUnits="userSpaceOnUse">
      <stop stop-color="#FFEE61"/>
      <stop offset="1" stop-color="#FFCE3C"/>
    </linearGradient>
  </defs>
</svg>
