<?xml version="1.0" encoding="UTF-8"?>
<svg id="Button_Gorilla_Image" data-name="Button Gorilla Image" xmlns="http://www.w3.org/2000/svg" viewBox="0 0 1080 1080">
  <defs>
    <style>
      .cls-1 {
        fill: #020202;
      }

      .cls-1, .cls-2, .cls-3, .cls-4, .cls-5, .cls-6, .cls-7, .cls-8, .cls-9, .cls-10, .cls-11, .cls-12, .cls-13, .cls-14, .cls-15, .cls-16, .cls-17, .cls-18, .cls-19, .cls-20, .cls-21, .cls-22, .cls-23, .cls-24, .cls-25, .cls-26, .cls-27, .cls-28, .cls-29, .cls-30, .cls-31, .cls-32, .cls-33, .cls-34, .cls-35, .cls-36, .cls-37, .cls-38, .cls-39, .cls-40, .cls-41, .cls-42, .cls-43, .cls-44, .cls-45, .cls-46, .cls-47, .cls-48, .cls-49, .cls-50, .cls-51, .cls-52, .cls-53, .cls-54, .cls-55, .cls-56, .cls-57, .cls-58, .cls-59, .cls-60, .cls-61, .cls-62, .cls-63, .cls-64, .cls-65, .cls-66, .cls-67, .cls-68, .cls-69, .cls-70, .cls-71, .cls-72, .cls-73, .cls-74, .cls-75, .cls-76, .cls-77, .cls-78, .cls-79, .cls-80, .cls-81, .cls-82, .cls-83, .cls-84, .cls-85, .cls-86, .cls-87, .cls-88, .cls-89 {
        stroke-width: 0px;
      }

      .cls-2 {
        fill: #646464;
      }

      .cls-3 {
        fill: #242424;
      }

      .cls-4 {
        fill: #222;
      }

      .cls-5 {
        fill: #292929;
      }

      .cls-6 {
        fill: #343434;
      }

      .cls-7 {
        fill: #525252;
      }

      .cls-8 {
        fill: #898989;
      }

      .cls-9 {
        fill: #1e1e1e;
      }

      .cls-10 {
        fill: #bbb;
      }

      .cls-11 {
        fill: #000;
      }

      .cls-12 {
        fill: #151515;
      }

      .cls-13 {
        fill: #c8c8c8;
      }

      .cls-14 {
        fill: #1c1c1c;
      }

      .cls-15 {
        fill: #2f2f2f;
      }

      .cls-16 {
        fill: #737373;
      }

      .cls-17 {
        fill: #616161;
      }

      .cls-18 {
        fill: #282828;
      }

      .cls-19 {
        fill: #434343;
      }

      .cls-20 {
        fill: #c4c4c4;
      }

      .cls-21 {
        fill: #454545;
      }

      .cls-22 {
        fill: #b4b4b4;
      }

      .cls-23 {
        fill: #8e8e8e;
      }

      .cls-24 {
        fill: #636363;
      }

      .cls-25 {
        fill: #bababa;
      }

      .cls-26 {
        fill: #b1b1b1;
      }

      .cls-27 {
        fill: #363636;
      }

      .cls-28 {
        fill: silver;
      }

      .cls-29 {
        fill: #cacaca;
      }

      .cls-30 {
        fill: #b7b7b7;
      }

      .cls-31 {
        fill: #989898;
      }

      .cls-32 {
        fill: #909090;
      }

      .cls-33 {
        fill: #d9d9d9;
      }

      .cls-34 {
        fill: #515151;
      }

      .cls-35 {
        fill: #101010;
      }

      .cls-36 {
        fill: #3d3d3d;
      }

      .cls-37 {
        fill: #b2b2b2;
      }

      .cls-38 {
        fill: #d6d6d6;
      }

      .cls-39 {
        fill: #c3c3c3;
      }

      .cls-40 {
        fill: #6e6e6e;
      }

      .cls-41 {
        fill: #212121;
      }

      .cls-42 {
        fill: #3f3f3f;
      }

      .cls-43 {
        fill: #fdfdfd;
      }

      .cls-44 {
        fill: #2b2b2b;
      }

      .cls-45 {
        fill: #949494;
      }

      .cls-46 {
        fill: #2c2c2c;
      }

      .cls-47 {
        fill: gray;
      }

      .cls-48 {
        fill: #010101;
      }

      .cls-49 {
        fill: #9c9c9c;
      }

      .cls-50 {
        fill: #626262;
      }

      .cls-51 {
        fill: #404040;
      }

      .cls-52 {
        fill: #121212;
      }

      .cls-53 {
        fill: #d5d5d5;
      }

      .cls-54 {
        fill: #171717;
      }

      .cls-55 {
        fill: #c6c6c6;
      }

      .cls-56 {
        fill: #cfcfcf;
      }

      .cls-57 {
        fill: #383838;
      }

      .cls-58 {
        fill: #bebebe;
      }

      .cls-59 {
        fill: #272727;
      }

      .cls-60 {
        fill: #111;
      }

      .cls-61 {
        fill: #2d2d2d;
      }

      .cls-62 {
        fill: #232323;
      }

      .cls-63 {
        fill: #3a3a3a;
      }

      .cls-64 {
        fill: #4e4e4e;
      }

      .cls-65 {
        fill: #333;
      }

      .cls-66 {
        fill: #8c8c8c;
      }

      .cls-67 {
        fill: #323232;
      }

      .cls-68 {
        fill: #8d8d8d;
      }

      .cls-69 {
        fill: #353535;
      }

      .cls-70 {
        fill: #787878;
      }

      .cls-71 {
        fill: #313131;
      }

      .cls-72 {
        fill: #c5c5c5;
      }

      .cls-73 {
        fill: #8a8a8a;
      }

      .cls-74 {
        fill: #202020;
      }

      .cls-75 {
        fill: #c2c2c2;
      }

      .cls-76 {
        fill: #3e3e3e;
      }

      .cls-77 {
        fill: #5e5e5e;
      }

      .cls-78 {
        fill: #7f7f7f;
      }

      .cls-79 {
        fill: #cbcbcb;
      }

      .cls-80 {
        fill: #d1d1d1;
      }

      .cls-81 {
        fill: #3b3b3b;
      }

      .cls-82 {
        fill: #393939;
      }

      .cls-83 {
        fill: #878787;
      }

      .cls-84 {
        fill: #7e7e7e;
      }

      .cls-85 {
        fill: #030303;
      }

      .cls-86 {
        fill: #414141;
      }

      .cls-87 {
        fill: #9d9d9d;
      }

      .cls-88 {
        fill: #929292;
      }

      .cls-89 {
        fill: #4d4d4d;
      }
    </style>
  </defs>
  <path class="cls-43" d="M540,1079.91c-178.47,0-356.94-.01-535.41.09-3.75,0-4.59-.84-4.59-4.59C.1,718.47.1,361.53,0,4.59,0,.84.84,0,4.59,0c356.94.1,713.88.1,1070.82,0,3.75,0,4.59.84,4.59,4.59-.1,356.94-.1,713.88,0,1070.81,0,3.75-.84,4.6-4.59,4.59-178.47-.11-356.94-.09-535.41-.09Z"/>
  <path class="cls-11" d="M164.03,840.8c-7.99.05-15.99-.04-23.98.25-2.8.1-3.51-1.14-3.57-3.38-.16-5.66-.6-11.34-.3-16.97.94-18.04.82-36.19,5.31-53.89,6.71-26.48,20.82-48.76,39.24-68.46,38.16-40.79,85.62-64.98,139.55-77.35,9.84-2.26,19.76-4.15,29.65-6.21.34-.4.56-.85.66-1.37-.68-6.6-2.18-13.06-3.07-19.63-2.5-18.49.43-36.37,5.3-54.09.83-2.42,1.6-4.86,1.88-7.43.06-.5.16-.99.28-1.48.61-2.41,1.37-4.76,2.35-7.05,2.34-5.15,5.12-10.16,4.78-16.09-.61-.6-1.3-1.01-2.12-1.25-18.04-5.2-26.15-18.56-29.21-35.88-1.48-8.37-.88-16.82-.07-25.23.23-1.27.32-2.55.47-3.83,1.2-2.41,1.9-5.03,2.97-7.49,1.73-3.31,3.56-6.58,4.87-10.09.88-1.87,1.81-3.7,3.15-5.29,2.22-2.08,4.59-4.02,6.19-6.68.67-.86,1.44-1.61,2.27-2.32,1.26-.79,2.45-1.67,3.55-2.67.32-.29.67-.54,1.03-.78,1.13-.63,2.04-1.54,2.93-2.45.41-.49.86-.94,1.5-1.12,1.51-.15,2.66-1.04,3.81-1.93.36-.27.74-.5,1.13-.71,2.88-1.56,5.91-2.74,8.9-4.06,7.65-3.39,16.03-3.78,23.99-5.87.64-.76,1.18-1.59,1.72-2.42.97-4.79.18-9.63.46-14.44.03-1.14.11-2.28.39-3.39,1.32-5.16-.02-10.47.86-15.66.04-17.91,1.16-35.69,6.1-53.03.54-2.32,1.32-4.56,2.35-6.7,3.17-7.35,7.16-14.17,12.9-19.85,4.01-4.2,8.85-7.38,13.39-10.93.83-.45,1.68-.84,2.52-1.26,1.89-.41,3.65-1.16,5.35-2.09,1.03-.14,2.03-.41,3.07-.49,7.24-.54,14.43.58,21.64.6,4.15-3.41,5.76-8.62,8.94-12.71,5.81-8.43,12.27-16.28,20.56-22.44,10.45-7.44,21.72-13.15,34.17-16.4,3.26-.25,6.3-1.54,9.52-2.02.51-.08,1.01-.15,1.52-.24,2.03-.66,4.12-.76,6.23-.79,2.16.03,4.31,0,6.39-.74,4.25-.44,8.51-.46,12.76-.02,9.21,1.3,18.42,2.45,27.26,5.68,4.87,1.78,9.43,4.19,14.2,6.12,10.42,5.06,19.11,12.26,26.23,21.35,2.59,3.31,3.86,7.27,4.98,11.26.86,7.19,3.56,11.53,12.16,10.93,4.92-.34,9.98,2.07,14.58,4.49,5.06,3.04,9.47,6.78,12.91,11.62,3.96,4.81,7.34,10,10.13,15.58.23.45.4.92.54,1.4,3.03,7.19,5.2,14.63,6.71,22.28,1.67,9.64.54,19.51,2.35,29.14.99,5.23,2.84,10.19,4.63,15.18,1.22,3.41,3.28,4.96,7.07,4.73,6.13-.37,12.27-.16,18.18,1.86,8.76,2.52,15.23,8.35,21.29,14.76,1.92,2.08,3.44,4.44,4.9,6.85,7.87,12.93,11.89,26.84,10.91,42.08-.18,2.82-.48,5.59-1.05,8.35-.9,4.26-2.47,8.29-4.28,12.24-.58,1.18-1.06,2.41-1.68,3.58q-4.36,8.15,2.06,15.33c.36.28.69.6.99.94,1.54,2.49,3.58,4.66,4.86,7.33,1.75,4.69,4.91,8.53,7.59,12.67,3.14,4.85,5.58,10.11,8.74,14.95.28.4.51.82.73,1.26,4.96,9.7,9.12,19.72,12.51,30.07,1.78,5.25,2.67,10.69,3.22,16.19.34,2.34.01,4.76.91,7.03.15.55.23,1.1.28,1.66.16,5.77.11,11.53.05,17.29-.03.82-.12,1.64-.31,2.44-.75,1.92-.68,3.97-.93,5.97-.93,5.91-1.95,11.8-4.27,17.38-1,3.14-2.72,6.02-3.26,9.31.03,1.1.54,1.93,1.48,2.5,28.78,5.97,57.12,13.14,83.72,26.24,46.97,23.14,74.77,60.82,86.19,111.37,4.49,19.89,7.55,39.97,9.13,60.3.6,7.76,1.81,15.47,1.93,23.28.04,2.39-.63,3.12-3.05,3.07-8.65-.19-17.31-.16-25.97-.22-2.09-3.05-2.09-6.6-2.3-10.05-1.48-24.33-4.67-48.36-12.1-71.68-11.38-35.71-31.59-64.73-64.05-84.43-16.83-10.22-35.13-16.71-54.29-20.92-12.04-2.64-24.22-4.51-36.37-6.6-3.06-.53-5.21.12-7.59,2.3-21.4,19.6-44.28,37.21-69.79,51.22-1.89,1.04-3.81,2.05-5.88,2.74-16.05,7.27-32.25,14.11-49.48,18.19-18.63,4.41-37.43,7.11-56.64,6.82-15.93-.24-31.88.39-47.77-1.32-1.82-.56-3.68-.84-5.59-.75-2.37-.07-4.75.07-7.11-.24-.51-.06-1.01-.18-1.51-.32-5.64-.83-11.26-1.83-16.89-2.63-.46-.07-.91-.18-1.35-.32-1.42-.58-2.94-.74-4.44-.96-.42-.08-.83-.2-1.23-.33-1.4-.52-2.9-.46-4.35-.75-.44-.08-.86-.2-1.29-.33-2.64-.76-5.33-1.22-8.06-1.5-1.41-.32-2.78-.77-4.17-1.19-3.93-1.54-8.19-2.08-12.04-3.87-9.5-3.2-18.8-6.96-28.48-9.63-1.98-.32-3.74-1.16-5.38-2.27-3.84-2.46-7.95-4.4-12.2-6.05-.43-.16-.83-.37-1.22-.6-3.12-2.24-6.69-3.65-10.08-5.4-.41-.21-.8-.45-1.18-.71-4.06-3.04-8.61-5.31-12.77-8.19-.39-.23-.76-.5-1.12-.79-2.19-1.91-4.57-3.58-6.94-5.26-.39-.24-.75-.51-1.1-.8-1.95-1.94-3.99-3.78-6.36-5.21-8.44-7.49-17.16-14.71-22.92-24.68-1.23-2.14-3.08-2.78-5.52-2.33-41.86,7.67-82.7,18.21-118.06,43.42-34.56,24.64-59.93,56.03-70.05,98.14-3.92,16.3-4.04,32.96-3.98,49.61,0,2.59.72,5.38-1.31,7.65Z"/>
  <path class="cls-7" d="M923.95,840.81c-6.3.1-12.6.19-18.89.29-2-1.12-2.2-3.23-2.74-5.11-2.41-8.39-5.89-16.26-10.93-23.43-4.76-6.77-11.22-10.44-19.48-10.18-5.2.16-8.82-1.53-12.64-5.28-9.39-9.23-21.34-12.2-34.13-10.27-5.22.79-8.84.47-12.89-3.42-8.18-7.85-18.88-8.54-29.52-7.89-5.28.32-10.65.82-15.71,2.67-3.45,1.26-6.03.26-8.3-2.6-6.64-8.37-13.76-16.25-22.87-22.12-11.74-7.56-24.66-11.64-38.41-13.13-37.31-4.06-70.58,7.81-102.07,26.35-11.37,6.69-21.72,14.79-31.73,23.38-5.24,4.49-6.52,4.23-10.75-1.37-9.8-13-20.94-24.55-34.92-33.16-17.69-10.89-36.79-16.52-57.62-17.33-40.08-1.57-74.05,13.51-105.03,37.26-3.44,2.64-6.46,5.78-9.24,9.1-4.93,5.89-12.97,8.26-19.29,4.21-7.8-5-15.89-7.33-25.03-6.56-2.41.2-4.49-.98-6.57-2.08-13.65-7.2-31.99-4.66-42.88,5.99-2.47,2.42-5.04,4.6-8.69,4.11-24.38-3.25-38.7,18.74-42.18,38.09-.78,4.31-.17,9.09-3.48,12.74l-13.95-.27c-1.73-2.89-.47-5.93-.06-8.75,3.63-25.1,8.68-49.87,18.59-73.39,15.2-36.08,40.38-62.05,76.99-76.8,29.09-11.71,59.6-17.76,90.14-23.86,3.03-.6,5.76.01,7.66,2.45,2.9,3.72,6.74,6.41,10,9.72,11.95,10.72,25.58,18.82,39.8,26.17,14.7,7.6,30.36,12.54,45.86,18,19.57,6.29,39.69,9.77,60.04,12.23,16.34,1.98,32.78,3.03,49.19,2.89,26.16-.23,52.03-3.29,77.09-11.31,13.96-4.47,27.38-10.33,40.36-17.14,1.41-1.06,2.97-1.91,4.49-2.79,1.74-.53,3.38-1.27,4.87-2.34.35-.29.72-.54,1.11-.77,1.87-.87,3.61-1.93,4.95-3.54,13.12-7.97,25.42-17.05,36.89-27.21,4.4-3.89,8.8-5.09,14.59-4.05,23.95,4.3,47.82,8.78,70.53,17.91,41.07,16.51,66.85,46.46,78.3,89.04,4.69,17.44,6.66,35.26,7.93,53.22.48,6.78,1.56,13.52.61,20.34Z"/>
  <path class="cls-11" d="M197.97,841.07c1.78-10.43,2.98-21.01,8.2-30.53,7.6-13.86,18.29-22.79,35.07-21.54,4.58.34,7.71-1.17,10.87-4.44,10.43-10.79,31.33-13.25,44.09-5.33,2.3,1.43,4.53,1.99,7.04,1.7,8.69-1,16.32,1.48,23.47,6.4,5.37,3.7,13.66,1.84,17.76-3.04,9.24-11,21.22-18.53,33.42-25.75,16.74-9.9,34.62-17.25,53.77-20.1,36.44-5.41,70.37.67,99.59,25.04,8.77,7.31,16.12,15.82,22.97,24.83,2.37,3.12,3.84,5.12,8.1,1.3,18.7-16.76,39.49-30.41,63.07-39.41,15.19-5.8,30.66-10.05,47.07-11.51,17.42-1.55,33.97.5,50.21,6.51,15.54,5.75,27.11,16.57,36.95,29.41,2.25,2.93,4.08,3.35,7.46,2.32,11.44-3.49,23.06-4.1,34.75-1,5.3,1.41,9.86,4.21,13.41,8.2,1.96,2.21,3.29,2.62,6.2,2.02,16.3-3.36,30.62.22,41.77,13.23,1.51,1.77,3.16,1.7,4.9,1.53,13.64-1.32,22.25,5.47,28.32,16.94,3.92,7.4,6.62,15.18,8.63,23.24,2.69,13.15,3.5,26.27,2.05,39.76-2.27,21.09-7.28,41.44-14.24,61.35-6.15,17.6-20.26,24.81-38.69,20.96-5.03-1.05-10.03-1.69-13.97-5.33-1.65-1.53-2.48-.2-3.61.8-12.36,11-26.54,12.88-41.98,8.28-.31-.09-.75-.03-.95-.22-7.54-7.16-15.48-2.21-23.59-1.38-12.3,1.25-25.04,2.76-36.16-5.52-7.34-5.46-11.08-12.89-12.68-21.57-.41-2.23-.44-2.85-3.27-2.46-22.8,3.16-36.43-10.45-40.24-24.19-3.53-12.72-3.2-25.66-2-38.73.96-10.5,3.4-20.65,5.47-30.9-.41-7.44,2.66-13.9,5.19-20.53-7.14,3.58-13.68,8.28-17.69,15.89-.7,1.34-1.5,2.57-2.74,3.47-4.28.03-8.56.06-12.84.09-2.29-2.58-.69-5.13.37-7.4,6.88-14.75,18.58-23.97,33.97-28.5,3.74-1.1,6.53-2.58,8.71-5.87,6.72-10.2,15.6-17.59,27.88-20.2,6.54-1.14,13.1-1.68,19.87-.5-5.08-6.97-11.35-12.28-18.67-16.32-20.53-11.32-42.27-13.21-64.85-8.08-32.48,7.37-61.17,22.18-86.23,44.07-2.38,2.08-4.91,3.96-7.09,6.29-5.75,6.16-11.67,6.24-17.67.17-3.04-3.08-5.57-6.62-8.16-10.09-18.1-24.23-42.05-38.73-71.93-43.61-15.8-2.58-31.13-.53-46.31,3.78-21.74,6.17-41.35,16.51-59.13,30.39-.92.72-1.83,1.44-2.68,2.24-3.67,3.43-3.65,3.97.68,6.19,3.12,1.6,6.02,3.54,8.93,5.48,2.73,1.94,5.31,4.18,7.19,6.86,2.83,4.05,6.43,5.26,11.14,4.92,15.25-1.08,28.68,11.55,33.29,26.02.45,1.42.87,2.92-.51,4.16l-12.86-.09c-2.1-.75-2.76-2.72-3.75-4.42-2.86-4.89-6.97-8.37-12.25-10.34-3.38-1.26-4.03-.49-3.49,3.1.6,3.96,3.01,7.87.57,11.98,1.28,11.68,2.9,23.42,1.53,35.11-.85,7.24-.09,14.48-1.49,21.71-2.65,13.66-3.95,27.65-12.84,39.24-10.87,14.17-22.76,15.81-36.93,5.02-1.44,2.59-2.74,5.27-4.35,7.76-4.85,7.53-11.82,11.2-20.8,10.96-6.23-.16-12.46.49-18.6-1.8-4.34-1.61-8.02-3.77-11.07-7.17-.89-.99-1.48-2.03-3.5-.91-15.14,8.41-29.49,4.02-37.96-8.83-1.52-2.31-2.18-1.84-3.81-.59-7.83,5.99-21.99,3.4-28.85-2.64-9.59-8.44-13.23-19.17-14.41-31.32-.9-9.2-2.37-18.44-1.81-27.64.8-12.99.85-26.05,2.75-38.97Z"/>
  <path class="cls-39" d="M723.87,779.8c-13,3.58-22.2,11.87-28.78,23.35-1.52,2.65-4.09,2.49-6.47,2.78-13.88,1.7-32.85,18.94-35.59,32.47-.16.79.04,1.65.07,2.48-77.07,0-154.14,0-231.21,0-1.15-14.08-16.84-28.88-30.63-28.92-.33,0-.67-.04-1,0-5.73.72-10.54-.19-13.8-5.86-1.42-2.47-4.24-4.13-6.43-6.16-1.42-2.52.59-3.76,2.09-4.87,19.91-14.69,40.47-28.67,64.86-34.38,24.3-5.68,47.85-2.15,68.59,12.69,14.89,10.65,29.29,21.96,40.45,36.84,4.71,6.28,10.49,6.82,17.14,2.51,2.97-1.92,5.48-4.42,7.64-7.14,7.35-9.21,16.84-15.6,27.27-20.59,18.21-8.71,36.82-16.29,56.9-19.75,22.57-3.89,44.11-1.77,64.21,9.93,1.91,1.11,4.47,1.71,4.67,4.61Z"/>
  <path class="cls-59" d="M387.02,670.99c-3.37-3.2-6.86-6.29-10.06-9.66-1.95-2.05-4.07-2.74-6.71-2.19-25.96,5.36-52.03,10.29-77.16,18.99-16.39,5.68-32.26,12.54-46.01,23.36-20.43,16.08-35.22,36.4-44.58,60.67-9.12,23.64-14.54,48.15-17.49,73.27-.21,1.8-.66,3.58-1,5.36-6.66,0-13.32,0-19.99,0,.19-13.63-.52-27.29,1.07-40.87,2.24-19.18,7.87-37.36,17.21-54.26,8.66-15.66,19.68-29.6,32.59-41.97,19.81-18.97,42.7-33.11,68.17-43.25,24.49-9.75,50.12-15.14,75.83-20.27,1.38-.27,2.86-.32,3.58,1.03,5.99,11.2,15.91,18.9,24.57,27.73.51.45.59.99.38,1.61-.14.15-.28.29-.41.43Z"/>
  <path class="cls-59" d="M923.95,840.81c-2.15-6.57-1.24-13.47-1.82-20.18-1.92-22.5-4.4-44.82-12.2-66.2-13.26-36.38-38.29-61.21-74.12-75.33-22.02-8.68-45.2-12.78-68.29-17.41-8.49-1.7-13.23,2.01-18.8,6.72-10.64,8.99-22.02,17.03-33.76,24.55-1.54,1.22-3.49,1.75-5,3h0c-1.55,1.21-3.47,1.78-5.03,2.97-1.32.69-2.63,1.38-3.95,2.07-1.93.87-3.48,2.75-5.94,2.24-.26-.27-.36-.55-.29-.84.07-.29.14-.44.22-.44,21.19-10.93,40.46-24.59,58.72-39.91,6.06-5.09,12.09-10.12,17.58-15.81,1.18-1.22,2.56-1.28,4.14-.99,19.84,3.65,39.86,6.33,59.16,12.62,18.52,6.03,35.57,14.73,50.72,26.98,31.14,25.18,46.72,59.15,54.61,97.38,3.42,16.55,5.47,33.28,6.12,50.18.11,2.79,1.23,5.51.95,8.37-7.67,0-15.34.02-23.01.03Z"/>
  <path class="cls-59" d="M390.11,841.11c.11-4.36-1.02-8.51-2.05-12.69-.32-1.31-1.92-2.89-.17-4.04,1.4-.93,3.24-.64,4.81-.02,6.21,2.46,11.26,6.29,14.27,12.43.66,1.34,1.37,2.66,2.06,3.98-6.31.11-12.61.22-18.92.33Z"/>
  <path class="cls-59" d="M665.95,840.78c1.97-9.01,13.86-18.78,21.51-20.58-2.13,7.38-4.2,14.57-6.28,21.76-4.93-2.33-10.2-.22-15.23-1.17Z"/>
  <path class="cls-41" d="M331.94,444.87c-.75,8.56-1.67,17.12.11,25.68,3.48,16.79,10.87,30.24,29.08,34.65,1.1.27,2.24.69,2.85,1.83-.61.51-1.29.89-2.1.97-2.28-.41-4.49-1.11-6.75-1.6-16.66-7.74-24.48-21.26-25.59-39.17-.07-1.14.2-2.32-.36-3.41,0-2.56.01-5.13.02-7.69.73-2.57.19-5.19.33-7.78.09-1.68.05-3.39,2.4-3.48Z"/>
  <path class="cls-75" d="M445.87,260.96c-.93.08-1.86.17-2.78.25-1.52.94-3.47.79-4.9,1.96-.7.35-1.4.7-2.09,1.04-4.61,2.62-8.5,6.2-12.71,9.36-.48.02-.91-.13-1.28-.44,9.71-11.14,21.65-17.19,36.68-15.33,8.84,1.1,8.65,1.3,13.51-6.15,4.05-6.22,7.76-12.75,13.47-17.72.43-.29.87-.31,1.33-.06-2.24,5.5-6.91,9.34-9.81,14.39-3.44,4.24-4.84,9.95-9.62,13.22-1.98-.24-3.98-.32-5.89-1-4.57-.85-9.18-.34-13.77-.31-.73.21-1.46.42-2.13.8Z"/>
  <path class="cls-58" d="M701.14,341.74c1.6,5.2,3.35,10.36,4.77,15.62,1.16,4.32,3.33,6.01,8.12,5.7,19.91-1.28,34.27,7.78,44.06,24.76.26.44.27.88.05,1.33-1.11.42-1.75-.29-2.4-.99-1.45-2.58-2.93-5.14-5.23-7.1-5.73-6.14-11.82-11.77-20.29-13.93-5.98-1.59-11.96-2.84-18.2-1.68-3.37.63-5.7-.55-6.96-4.02-1.98-5.46-4.36-10.79-5.05-16.64.03-1.14.02-2.3,1.13-3.04Z"/>
  <path class="cls-7" d="M399.93,388.95c-.35.65-.69,1.3-1.04,1.95-1.77,1.18-3.71.44-5.58.51-.94-1.29-.11-1.72.98-1.81,1.55-.13,2.88-.48,3.49-2.11.18-4.72.71-9.42.76-14.16,0-.58.08-1.15.25-1.71.54-5.85-.21-11.8,1.22-17.59-.27-.9-.54-1.79-.81-2.69.28-.49.5-1.01.67-1.55.89-14.15,1.3-28.35,4.4-42.27,1.32-2.45.67-5.9,3.77-7.46-1.19,8.8-3.86,17.35-4.22,26.31-.37,9.22-1.21,18.43-1.84,27.64-1.36,5.29.37,10.75-.92,16.04-.03.99-.05,1.97-.08,2.96-1.42,5.24.51,10.7-1.06,15.93Z"/>
  <path class="cls-13" d="M803.07,587.12c-.71,3.95-1.43,7.91-2.14,11.86-.62.31-1.09.17-1.43-.44-.79-5.32,1.16-10.36,1.8-15.51,1.28-10.3.63-20.44-.69-30.6-.74-5.71-1.68-11.42-3.77-16.84-1.17-3.89-2.76-7.65-3.79-11.59,0-.87.27-1.61.97-2.16,4.88,10.15,7.75,20.87,9.04,32.04.94,1.6-.26,3.56.87,5.12.04,1.3.07,2.6.11,3.9.66,5.06.66,10.12,0,15.19-.03,1.3-.06,2.61-.09,3.91-1.15,1.56.07,3.53-.87,5.13Z"/>
  <path class="cls-30" d="M658.89,259.14c14.11,3.93,22.93,13.98,30.04,25.99.64.6.57,1.27.23,1.98-2.08.56-2.34-1.22-3.02-2.39-1.55-2.66-3.3-5.16-5.38-7.43-3.52-5.2-8.06-9.27-13.61-12.22-5.73-3.21-12-4.87-18.43-4.87-4.74,0-6.6-1.85-6.83-6.21-.04-.82-.41-1.59-.67-2.37.03-1.82-1.21-3.51-.57-5.39.39-.48.85-.54,1.36-.19,1.93,3.1,1.49,6.88,2.88,10.13,1.86,2.67,4.93.54,7.14,1.81.65.03,1.29.07,1.94.1,1.45,1.21,3.49-.29,4.92,1.06Z"/>
  <path class="cls-28" d="M329.19,463.82c.81,4.4,1.32,8.87,2.47,13.18,3.5,13.06,11.28,22.75,23.46,28.79.51.43.48.82-.08,1.18-13.74-5.2-21.07-15.86-24.96-29.39-1.29-4.49-1.61-9.11-.89-13.76Z"/>
  <path class="cls-10" d="M701.14,341.74l-.28,3.54c-3.01-3.94-2.03-8.67-2.25-13.03-.34-6.58-.49-13.15-1.8-19.62-.56-4.89-3.26-9.31-3.22-14.35.38-.53.84-.62,1.39-.25,5.93,14.02,5.88,28.88,6.16,43.7Z"/>
  <path class="cls-80" d="M766.03,404.89c4.75,13.4,5.57,26.81.02,40.22-1.07-.79-1.05-1.92-.98-3.07.29-1.1.36-2.23.64-3.33,2.16-10.26,1.48-20.45-.74-30.6-.03-1.2-.05-2.39,1.05-3.21Z"/>
  <path class="cls-56" d="M405.05,307.06c-2.73,12.71-3.39,25.65-4.2,38.57-.11,1.76.47,3.68-.84,5.26-.81-2.99-.61-5.99-.1-9-.12-12.4,1.42-24.62,4.06-36.71.18-.83.35-1.61,1.14-2.07.59,1.32.65,2.64-.05,3.95Z"/>
  <path class="cls-55" d="M642.01,246.04c-.34,0-.68,0-1.02,0-3.34-2.39-4.29-6.48-6.8-9.54-6.51-7.96-14.64-13.71-23.26-18.96-.82-.62-1.4-1.32-.99-2.44,14,6.88,25.9,15.94,32.07,30.93Z"/>
  <path class="cls-28" d="M541.85,204.87c17.31-3.2,34.41-3.1,51.13,3.2-.99,1.18-2.33.97-3.63.92-1.41-.4-2.89-.33-4.3-.73-1.32-.93-2.81-1.34-4.42-1.33-.46-.07-.9-.18-1.33-.32-2.02-.94-4.2-.37-6.29-.7-.51-.11-1.01-.23-1.52-.35-7.3-.94-14.59-.69-21.87.19-2.16.26-4.29.39-6.45.17-.56-.19-.99-.54-1.3-1.05Z"/>
  <path class="cls-20" d="M398.23,388.2c-.63,3.14-3.87,1.2-5.32,2.74-4.74,1.72-9.84,2.01-14.6,3.63-2.32.79-4.69,1.44-6.86,2.62-2.2.61-4.19,1.75-6.31,2.56-.8.08-1.51-.11-2.08-.71,3.69-4.17,9.08-4.95,13.9-6.75,3.19-1.19,6.68-1.57,10.03-2.31,1.54-1.08,3.52.22,5.05-.92,1.7-.03,3.41-.05,4.84-1.17.31-.29.67-.37,1.07-.21.1.17.19.35.29.52Z"/>
  <path class="cls-69" d="M783.83,506.05c-5.52-8.83-11.04-17.66-16.51-26.52-.14-.23.36-.85.57-1.29.29-.46.61-.51.96-.07l5.13,7.83c3.37,4.9,6.42,10.01,9.26,15.23.78,1.44,2.58,2.96.59,4.82Z"/>
  <path class="cls-26" d="M355.04,506.97c.03-.39.06-.78.08-1.18,2.26.43,4.52.85,6.78,1.28,2.17.98,1.4,2.45.86,4.09-1.44,4.33-2.94,8.64-4.67,12.86-.81,2.31-1.63,4.62-2.44,6.93-1.86-.65-.99-1.97-.77-3.13.61-4.28,2.74-8.06,4.06-12.11,2.12-6.53,2.21-6.51-3.91-8.74Z"/>
  <path class="cls-72" d="M783.83,506.05c-.16-4.93-3.91-8.17-5.78-12.3-1.2-2.66-3.76-4.62-4.07-7.75,5.94,5.23,8.35,12.75,12.46,19.17,1.13,1.77,1.78,3.85,2.65,5.79-.35.34-.76.52-1.24.56-2.06-.95-2.1-3.49-3.74-4.78,0-.27-.09-.5-.28-.69Z"/>
  <path class="cls-26" d="M765.96,442.02c.03,1.03.06,2.06.09,3.1-1.36,3.32-2.31,6.89-4.19,9.89-3.03,4.82-3.31,9,1.1,13,.63.95.74,1.91.04,2.88l-.44.07-.44-.04c-.26-.21-.45-.49-.68-.71-5.83-5.53-5.29-11.35-.78-17.35,1.53-2.9,2.47-6.04,3.66-9.08.31-.8.05-2.15,1.64-1.77Z"/>
  <path class="cls-47" d="M422.1,273.13c.36.06.71.11,1.07.17.41.6.45,1.14-.27,1.54-5.46,5.62-8.97,12.53-12.87,19.2-.71-1.02-.63-2.07-.06-3.12,2.66-6.88,7.38-12.35,12.14-17.8Z"/>
  <path class="cls-39" d="M486.98,234.04c-.4-.04-.81-.07-1.21-.11,5.85-6.37,11.87-12.51,20.01-16.03.44-.28.88-.28,1.32-.01.1,3.08-2.95,2.92-4.48,4.32-1.31,1.2-2.99,1.9-4.35,3.05-4.24,2.31-6.48,7.19-11.29,8.77Z"/>
  <path class="cls-29" d="M507.25,218.17c-.49-.09-.99-.17-1.48-.26,6.65-5,14.39-7.55,22.22-9.9.39.38.55.84.47,1.38-7.01,3.06-13.68,6.96-21.21,8.78Z"/>
  <path class="cls-68" d="M342.88,418.91c-.96,1.69-1.92,3.37-2.88,5.06-1.89,2.93-3.25,6.13-4.79,9.24-1.61,1.31-.66,4.33-3.31,4.94-.27-.46-.26-.92,0-1.38,2.82-8.49,6.58-16.43,13.14-22.75.32.33.5.73.54,1.18-.47,1.55-1.72,2.53-2.69,3.71Z"/>
  <path class="cls-78" d="M345.16,415.24c-.04-.41-.09-.82-.13-1.23,4.86-6.37,11.37-10.75,18.02-14.97.71.05,1.41.11,2.12.16.27,1.05-.58,1.32-1.21,1.75h.02c-1.13,1.04-2.56,1.54-3.94,2.15-.38.25-.76.5-1.14.75-1.19,1.18-2.51,2.2-3.91,3.12h0c-1.32.99-2.66,1.97-3.86,3.11-.67.69-1.33,1.39-2,2.08-1.38.95-1.83,3.11-3.99,3.06Z"/>
  <path class="cls-73" d="M588.93,208.11c1.35-.01,2.7-.03,4.04-.04,5.82,1.95,11.53,4.16,16.97,7.04.4.58.8,1.15,1.19,1.73-.26.51-.68.73-1.25.67-6.38-2.96-12.69-6.1-19.53-7.9-.82-.21-1.63-.35-1.43-1.49Z"/>
  <path class="cls-53" d="M799.77,598.92c.39.02.77.04,1.16.05-1.04,6.23-3.62,11.96-5.92,17.77-.75-.32-1.51-.63-2.26-.95.08-2.93,2.07-5.2,2.75-7.92,2.1-2.66,1-6.86,4.28-8.95Z"/>
  <path class="cls-37" d="M345.94,565.93c0-.31.05-.62.14-.92.68-.29,1.19-.1,1.53.56-.14,9.62-.13,19.25,0,28.87-.34.66-.85.83-1.53.53l-.09.05c-.93-3.59-.21-7.26-.44-10.88,0-2.74,0-5.47,0-8.21.21-3.33-.46-6.7.39-10.01Z"/>
  <path class="cls-20" d="M354.89,527.82c.23,1.05-.23,2.27.77,3.13.23.25.31.54.25.88-.75,1.51-1.2,3.14-1.7,4.75-.53,2.91-1.77,5.61-2.36,8.5-.2.96-.25,2.52-2.07,1.86-.29-1.05-.38-2.08.16-3.08,1.13-5.51,2.49-10.95,4.95-16.04Z"/>
  <path class="cls-49" d="M331.89,436.77c.12.52.25,1.04.37,1.55.43.93.38,1.84-.14,2.73-.06,1.27-.12,2.55-.18,3.82-3.45,3.14-.99,7.71-2.73,11.26-.67-6.67-.41-13.22,2.68-19.37Z"/>
  <path class="cls-29" d="M763.01,470.88c-.01-.96-.03-1.92-.04-2.88,2.07,3.33,5.83,5.68,5.88,10.17h-.49s-.48.07-.48.07c-2.13-2.12-3.97-4.43-4.88-7.36Z"/>
  <path class="cls-79" d="M694.98,298.04c-.38.02-.77.04-1.15.05-2.54-.85-2.03-3.84-3.7-5.3.03-.27-.03-.52-.2-.74-.32-1.61-1.82-2.97-1.07-4.82.02-.7.04-1.4.06-2.11,3.27,3.72,4.58,8.35,6.05,12.91Z"/>
  <path class="cls-45" d="M409.96,290.93c.02,1.04.04,2.08.06,3.12-.66,2-1.32,4.01-1.97,6.01-2.14,1.84-1.23,5-3,7,.02-1.32.03-2.63.05-3.95,1.52-4.1,2.45-8.43,4.86-12.18Z"/>
  <path class="cls-37" d="M350.95,614.93c-.34-.05-.68-.09-1.01-.14-.86-4.16-3.77-7.95-2.21-12.54.23-.15.46-.31.69-.46,1.79,4.2,3.41,8.42,2.53,13.13Z"/>
  <path class="cls-72" d="M766.03,404.89c-.04,1.09-.09,2.17-.13,3.26-3.69-3.6-3.72-8.82-5.77-13.15-.03-.85.21-1.57.89-2.12,2.74,3.56,3.36,8,5.01,12.01Z"/>
  <path class="cls-39" d="M787.92,511.01c.39-.02.78-.03,1.17-.05,2.63,3.18,3.2,7.29,4.92,10.87-.05.78-.1,1.57-.15,2.36-3.54-3.69-5.25-8.21-5.95-13.18Z"/>
  <path class="cls-80" d="M349.93,543.87c.07,1.11.14,2.22.21,3.34.89,3.59.09,6.92-1.56,10.12-.57.17-1.09.06-1.54-.32.39-4.5,1.07-8.94,2.9-13.13Z"/>
  <path class="cls-20" d="M400.03,354.03c.13,6.08.24,12.17-.9,18.19-1.08-1.33-.39-2.89-.59-4.34.2-2.98-.42-5.99.38-8.94.3-1.65-.67-3.59,1.11-4.91Z"/>
  <path class="cls-53" d="M804.03,578.08c0-5.06,0-10.12,0-15.19,1.42,5.06,1.46,10.12,0,15.19Z"/>
  <path class="cls-20" d="M399.11,373.04c-.04,5.07.42,10.17-.88,15.16-.13-.11-.26-.23-.39-.35-.46-3.31-.59-6.61.09-9.9.04-1.64.08-3.28.12-4.92.36-.45.71-.47,1.06,0Z"/>
  <path class="cls-28" d="M528.05,209.19c-.02-.39-.04-.79-.06-1.18,2.86-1.1,5.79-1.91,8.85-2.14.15.18.31.36.46.55.03.49-.11.93-.42,1.31-1.57,1.25-3.56,1.2-5.35,1.78-1.16-.1-2.38.41-3.49-.32Z"/>
  <path class="cls-80" d="M345.83,584.17c.05,3.62.11,7.23.16,10.85-1.88-3.55-.64-7.36-.94-11.04.38-.45.65-.41.78.19Z"/>
  <path class="cls-80" d="M345.94,565.93l-.11,9.89c-.13.59-.4.63-.78.19.23-3.37-.85-6.85.89-10.08Z"/>
  <path class="cls-20" d="M761.02,392.88c-.03.74-.06,1.48-.09,2.21-2.38-1.21-3.59-3.05-3.11-5.79.09-.5.17-.99.26-1.49,1.14,1.59,2.53,3.05,2.94,5.07Z"/>
  <path class="cls-33" d="M397.93,377.95c-.03,3.3-.06,6.6-.08,9.91,0,0-.48.08-.48.08,0,0-.48-.05-.49-.05.66-3.28-.72-6.78,1.05-9.94Z"/>
  <path class="cls-33" d="M399.9,341.9c.03,3,.07,6,.1,9-.18.3-.44.45-.79.45-.04-3.17-.93-6.4.69-9.45Z"/>
  <path class="cls-25" d="M347.04,557c.38.02.76.04,1.14.05,1.31,2.87.89,5.51-1.03,7.95-.35,0-.7,0-1.05,0,0-.67,0-1.33,0-2,1.11-1.55-.12-3.51.88-5.08,0-.31.02-.62.08-.92Z"/>
  <path class="cls-33" d="M398.92,358.95c-.02,3-.04,6.01-.06,9.01-.23.5-.5.55-.82.08.32-3.03-.86-6.2.88-9.09Z"/>
  <path class="cls-25" d="M345.05,576c.27,0,.53-.07.78-.19,0,2.78,0,5.57,0,8.35-.25-.11-.51-.18-.78-.19,0-2.66,0-5.32,0-7.98Z"/>
  <path class="cls-38" d="M652.03,257.98c-2.41-.48-5.47,1.6-7.14-1.81,2.14,1.53,5.05.05,7.14,1.81Z"/>
  <path class="cls-37" d="M347.73,602.25c-.27-.68-.54-1.37-.8-2.05-.54-1.45-.6-2.89.05-4.32,2.77,1.5,1.83,3.77,1.25,5.97-.17.13-.33.27-.5.4Z"/>
  <path class="cls-53" d="M803.07,587.12c.08-1.75-.69-3.63.87-5.13-.09,1.74.49,3.6-.87,5.13Z"/>
  <path class="cls-80" d="M346.96,557.92c-.08,1.73.59,3.59-.88,5.08.06-1.73-.53-3.58.88-5.08Z"/>
  <path class="cls-53" d="M803.93,559c-1.55-1.49-.79-3.38-.87-5.12,1.37,1.52.78,3.38.87,5.12Z"/>
  <path class="cls-56" d="M398.04,368.03c.28,0,.55-.03.82-.08.09,1.42.17,2.84.26,4.26.13.28.12.55-.01.82-.35,0-.71,0-1.06,0,0-1.67,0-3.33,0-5Z"/>
  <path class="cls-33" d="M392.03,389.06c-1.46,1.5-3.33.78-5.04.92,1.46-1.51,3.33-.82,5.04-.92Z"/>
  <path class="cls-28" d="M536.84,205.87c1.5-1.17,3.32-.75,5.01-1,.11.14.21.29.31.43-1.24,2.43-3.04,1.99-4.96.98-.12-.13-.24-.27-.36-.41Z"/>
  <path class="cls-25" d="M347.19,595.7c-.09,1.5-.18,2.99-.27,4.49-1.22-1.59-.86-3.44-.85-5.23.35,0,.7,0,1.05.01.28.22.3.46.06.72Z"/>
  <path class="cls-38" d="M658.89,259.14c-1.65-.29-3.52.39-4.92-1.06,1.68.14,3.59-.73,4.92,1.06Z"/>
  <path class="cls-39" d="M715.9,664.81c-.28.11-.57.21-.86.31-2.24,2.76-5.65,3.97-8.24,6.26-6.29,3.38-12.11,7.62-18.89,10.08-6.17,3.02-12.72,5.2-18.77,8.47-6.59,2.6-13.53,4.16-20.08,6.86-1.52.66-3.15.88-4.76,1.16-12.05,2.38-24.02,5.17-36.28,6.36-15.07,1.47-30.15,1.95-45.27.91-23.91-1.64-47.52-5.16-70.75-11.11-.65-.17-1.32-.11-1.99-.11l-.98-.04c-1.5-.8-3.49-.44-4.68-1.98-9.73-10.3-19.16-20.85-26.07-33.34-9.2-16.63-15.48-34.05-16.82-53.31-.6-8.58-.42-16.96,1.12-25.25,3.45-18.6,14.71-32.05,29.71-42.71,3.94-2.8,7.77-5.66,11.23-9.08,7.48-7.41,6.94-21.04-1.46-26.28-4.78-2.99-8.66-7.24-12.65-11.27-8.23-8.32-11.36-18.33-9.36-29.71,4.87-27.65,16.07-52.25,34.85-73.44,9.43-10.64,19.93-20.02,30.39-29.52,4.81-3.91,10.04-4.11,15.44-1.54,19.69,9.37,39.12,7.77,58-1.98,7.86-4.06,14.58-2.96,21.58,1.45,26.27,16.56,43.39,40.28,54.19,68.97,2.76,7.34,4.66,14.93,6.44,22.55,1.26,5.38,1.81,10.74.56,16.3-1.6,7.13-2.22,14.5-2.78,21.73-.81,10.43,3.09,19.5,11.69,26.19,6.2,4.84,13.16,8.46,19.71,12.73,20.44,13.33,29.43,32.59,30.21,56.46.81,25.03-6.39,48.3-15.02,71.3-.41,1.09-.92,2.14-1.13,3.3-1.27,4.41-5.68,6.03-8.28,9.27Z"/>
  <path class="cls-7" d="M515.01,239.06c17.28-9.42,35.64-15.08,55.42-13.79,20.34,1.32,38.29,8.21,50.56,25.79,4.57,7.04,5.91,14.62,4.12,22.84-.57,2.6-1.25,5.16-1.74,7.78-.47,2.5-1.07,5.13,1.76,6.61,2.55,1.33,4.83.4,6.72-1.58,2.77-2.89,6.4-4.26,10.11-5.02,6.64-1.36,12.5.18,16.75,5.94,6.79,11.03,12.07,22.71,13.3,35.71,1.01,10.59,1.66,21.22,4.34,31.55,7.25,28.03,18.47,54.46,32.3,79.84,13.15,24.14,29.3,46.46,42.62,70.47,9.62,17.34,18.41,35.1,22.29,54.81,2.08,10.58.3,20.84-2.73,30.99-2.73,9.13-6.37,17.86-11.3,26.03-.52.86-.95,1.77-1.6,2.53-.74.85-1.57,1.99-2.85,1.2-.99-.61-.58-1.8-.33-2.74,1.73-6.59,3.25-13.21,4.2-19.97,3.49-24.95-1.23-47.92-16.33-68.41-5.94-9.29-14.46-15.96-23.18-22.32-5.76-4.19-11.59-8.37-17.98-11.58-3.73-1.87-4.66-4.19-3.63-8.39,2.81-11.44,4.95-23.04,3.69-34.94-1.02-9.64-3.57-18.89-7.3-27.83-7.75-18.57-15.65-37.09-28.04-53.21-8.68-11.29-19.6-20.29-30.7-29.04-3.91-3.08-7.6-6.43-11.76-9.2-9.31-6.19-15.65-6.2-24.68.45-6.62,4.88-13.87,8.42-21.63,11.04-.49.22-1,.34-1.53.37-6.67,1.3-13.33,1.32-20,.02-5.27-1.01-10.35-2.84-14.73-5.81-10.81-7.32-20.75-6-30.57,1.86-9.94,7.95-20.14,15.6-28.94,24.88-13.46,14.17-24.1,30.22-32.12,48.04-.27.42-.59.8-.96,1.14-6.05,12.64-10.4,25.78-12.23,39.75-1.35,10.34-1.01,20.43,2.14,30.48,3.42,10.93,10.66,18.97,18.87,26.38.24.22.56.35.83.56,5.53,4.32,5.5,6.31-.48,9.71-5.69,3.23-10.79,7.12-15.25,11.9-5.6,6-10.14,12.69-13.52,20.17-.43.97-.9,1.92-1.45,2.82-4.92,9.5-7.98,19.68-9.71,30.11-2.58,15.59-2.72,31.29.85,46.84.26,1.13.52,2.26,1.02,3.32.22.52.37,1.05.46,1.6.74,3.77,2,7.38,3.29,10.98.52,1.45,1.06,3.19-.46,4.09-1.52.89-2.83-.49-3.84-1.55-3.91-4.1-7.2-8.69-10.44-13.32-8.96-12.82-11.77-27.66-13.75-42.7-1.32-10.04-2.19-20.12-2.23-30.28-.13-28.76,4.64-56.42,16.22-82.98,9.37-21.5,16.47-43.87,21.36-66.83,3.32-15.58,5.76-31.3,5.59-47.38-.08-7.94-.14-15.89-.13-23.83.02-8.48-1.14-16.87-1.75-25.3-.91-12.6.28-24.7,10.88-33.66,5.59-5.03,12.05-7.31,19.6-6.11,3.28.52,6.46,1.47,9.68,2.21,5.33,1.23,7.7.06,9.63-5.09,2.79-7.45,6.04-14.57,10.78-21.09,5.44-7.48,13.02-12.04,20.52-16.84Z"/>
  <path class="cls-8" d="M715.9,664.81c1.1-3.95,5.89-4.94,7.06-8.83,10.26-24.58,17.89-49.76,16.97-76.78-.57-16.69-6.49-31.52-17.45-44.03-6.4-7.31-15.07-11.89-23.33-16.87-5.83-3.52-11.33-7.36-15.55-12.99-4.49-5.99-6.11-12.76-5.38-19.72.81-7.73,1.21-15.55,2.91-23.19.68-3.07.93-6.21.34-9.38-5.21-27.84-16.07-52.91-35.1-74.31-7.94-8.93-17.09-16.14-26.96-22.57-6.49-4.23-12.95-5.2-20.51-1.03-16.3,8.98-33.71,10.31-51.59,5.01-3.21-.95-5.93-2.97-9.18-3.88-5.02-1.41-9.5-.94-13.31,2.9-.98,1.23-2.3,2.03-3.64,2.79-12.59,8.45-22.27,19.81-31.87,31.34-16.08,19.33-24.88,41.8-29.67,66.19-3.17,16.17,3.63,28.11,15.44,38,2.39,2,4.47,4.52,7.55,5.66,8.44,4.42,8.15,17.21,1.46,24.82-4.8,5.46-11.24,8.76-16.73,13.29-14.87,12.28-24.11,27.41-25.47,47.17-2.12,30.95,7.51,58.2,25.24,82.95,4.12,5.75,8.63,11.35,13.87,16.24.98.92,2.66,1.68,1.99,3.61-7.95-.8-15.36-2.4-21.69-8.19-7.13-6.51-14.26-12.94-20.05-20.68-9.76-13.03-14.28-28.14-15.53-44.03-1.87-23.92,2.79-46.6,15.54-67.27,1.48-2.4,3.08-4.71,4.99-6.79,5.03-7.85,12.91-12.12,20.74-16.44,2.46-1.36,5.18-2.28,7.48-3.91,3.87-2.73,4-5.55.89-9.06-3.21-3.62-7.13-6.45-10.79-9.5-4.24-3.53-7.84-7.59-11.61-11.53-9.67-13.22-9.74-28.04-7.04-43.24,1.06-6.01,2.59-11.93,4.51-17.73,5.94-16.2,13.53-31.54,23.67-45.57,2.8-3.88,5.89-7.52,8.99-11.16,10.52-10.94,22.05-20.66,34.38-29.55,5.79-4.17,11.06-4.71,17.13-1.62,6.07,3.09,11.93,6.64,18.7,8.13,18.27,4.03,34.55-.51,49.42-11.33,7.2-5.24,11.87-5.47,18.42.21,10.55,9.15,22.08,17.17,31.61,27.48,2.37,2.56,4.73,5.12,7.09,7.68,10.45,13.65,17.21,29.27,24.04,44.86,2.38,5.44,4.7,10.92,6.04,16.75,3.66,12.83,3.69,25.75,1.01,38.74-.01.52-.09,1.05-.22,1.56-1,2.81-1.55,5.73-1.93,8.69-1.25,3.71-3.08,7.47.72,10.85,4.35,4.5,10.17,6.81,15.32,10.1,14.14,9.03,27.02,19.28,35.69,34.02,7.44,13.16,11.54,27.25,10.84,42.4-.62,13.5-3.82,26.58-7.94,39.43-2.13,6.64-4.52,13.18-6.82,19.77-1.14,3.27-2.84,5.75-5.82,7.73-3.31,2.19-5.64,5.62-8.75,8.14-1.62,2.12-3.83,3.48-6.14,4.7Z"/>
  <path class="cls-59" d="M515.01,239.06c-2.43,3.05-6.05,4.49-9.12,6.68-9.96,7.1-16.21,16.85-20.28,28.15-3.4,9.44-5.29,10.72-15.07,8.03-8.93-2.45-17.25-2.71-24.54,4.06-11.7,8.7-12.69,21.31-11.58,34.13.44,5.06.95,10.27,1.22,15.29.57,10.9,1.23,21.85.86,32.82-.53,15.62-2.19,31.09-5.56,46.33-2.9,13.11-6.41,26.06-10.57,38.85-6.11,18.82-15.07,36.64-20.36,55.68-6.43,23.17-8.23,46.92-6.21,71.01,1.12,13.41,2.41,26.73,6.24,39.67,4.07,13.71,12.2,24.96,22.03,35.06,1.46,1.5,2.97,3.08,4.06,3.88-2.79-6.31-4.97-13.51-7.09-20.74v.02c-6.92-28.26-4.16-55.58,7.99-81.98.06-.8.21-1.56.98-2,2.02-4.35,4.81-8.26,7.18-12.41.75-1.31,1.83-2.85,3.82-2.8.29.27.39.54.29.8-.1.26-.2.4-.3.4-12.38,17.77-19.47,37.28-21.2,59.04-1.88,23.75,2.66,45.69,15.22,65.95,2.13,2.56,3.43,5.68,5.64,8.2.91,1.04,2.74,1.98,1.37,3.7-1.08,1.35-2.57.29-3.66-.2-8.19-3.65-16.34-7.39-23.73-12.56-1.9-1.33-3.74-2.76-5.62-4.12-21.72-17.18-34.3-39.49-38.1-66.96-3.57-25.85,2.05-50.06,11.93-73.7,8.58-20.54,19.21-40.16,27.06-61.03,5.04-13.4,8.38-27.21,10.13-41.41,2.01-16.31,2.49-32.7,3.24-49.09.83-17.98-.2-36.25,4.83-53.82,3.73-13.04,9.82-24.66,22.34-31.72,7.19-4.06,14.54-3.89,22.19-1.85,9.66,2.58,9.91,2.61,13.49-6.8,4.92-12.96,12.4-23.79,24.21-31.37,2.1-1.35,4.11-2.82,6.67-3.17Z"/>
  <path class="cls-59" d="M657.95,288.05c-7.51-7.72-17.08-8.13-25.42-1.01-2.41,2.06-4.83,3.65-8,1.76-3.32-1.98-2.71-4.84-1.75-7.88,3.22-10.17,3.2-20.18-1.8-29.86,6.64,7.26,6.42,15.82,4.61,24.66-.43,2.11-1.27,4.15-1.51,6.27-.23,2.04-.9,4.6,1.67,5.73,2.21.97,3.98-.19,5.82-1.66,6.3-5.03,13.46-7.62,21.19-4.02,9.88,4.6,16.64,12.24,20.34,22.68,2.36,6.67,3.14,13.61,3.65,20.45,1.23,16.54,5.3,32.32,11.1,47.72,6.71,17.84,12.28,36.14,21.12,53.14,8.48,17.3,18.59,33.6,29.73,49.32,13.87,19.59,25.57,40.47,33.94,62.97,5.14,13.82,9.01,28.16,7.79,43.24-.77,9.54-3.82,18.44-7.97,26.99-4.06,7.36-8.83,14.22-14.53,20.42-1.32.68-2.32,1.67-2.99,3-.54.38-1.06.81-1.61,1.18-1.03.68-1.75,2.54-3.19,1.7-1.44-.84-.63-2.4-.03-3.55.72-1.38-.16-3.02.86-4.3.03-.33.06-.66.11-.98,3.77-.18,4.68-3.68,6.1-5.98,8.27-13.42,13.9-27.91,16.32-43.57,2.02-13.05-2.1-25.04-6.52-36.92-8.58-23.07-21.32-43.97-34.64-64.48-19.26-29.65-36.39-60.32-48.49-93.68-6.57-18.1-11-36.59-12.33-55.8-.95-13.82-5.96-26.13-13.56-37.52Z"/>
  <path class="cls-59" d="M351.02,445.01c2.11-15.06,11.6-24.05,24.82-29.77,8.56-3.7,17.31-6.07,26.95-4.36,6.3,1.11,7.07,1.47,6.33,7.85-2.19,18.98-8.63,36.64-16.4,53.92-.68,1.51-1.11,3.15-1.93,4.57-1.88,3.24-2.11,8.42-5.85,9.37-5.41,1.37-11.25,2.92-16.95.44,2.91-1.53,4.68-3.85,5.84-6.98,7.6-20.4,14.29-41.1,20.18-62.06.47-1.66,3.28-5.13-1.89-5.06-9.14,2.12-17.93,4.97-25.55,10.8-5.49,4.2-9.13,9.59-11.65,15.89-.74,1.85-1.27,3.8-2.57,5.39-.45.36-.9.36-1.34,0Z"/>
  <path class="cls-15" d="M657.95,288.05c1.43.65,2.33,1.79,3.1,3.13,6.94,11.97,11.02,24.87,11.86,38.65,1.28,20.96,7.43,40.64,14.96,60.03,10.56,27.19,24.37,52.69,40.16,77.14,9.99,15.47,19.94,30.96,28.43,47.29,8.44,16.24,15.99,32.99,18.24,51.33,1.39,11.37-2.44,22.37-6.22,32.98-3.4,9.55-8.41,18.44-13.43,27.26-1.37,2.41-2.52,3.34-3.97.15,6.78-17.05,9.2-34.84,7.71-52.99-1.12-13.7-5.87-26.44-13.42-38.04-1.25-1.92-2.99-3.57-3.49-5.93.34-.46.7-.45,1.08-.04,9.67,12.91,15.08,27.37,17.18,43.42,2.06,15.71-1.15,30.64-4.72,45.64-.15.61-.24,1.24,0,2.04,3.53-3.61,5.65-8.15,7.65-12.59,5.89-13.08,10.78-26.49,9.9-41.21-.68-11.27-4.68-21.67-8.89-31.96-8.15-19.92-19.23-38.28-30.77-56.35-13.15-20.59-26.29-41.19-36.48-63.45-9.75-21.29-18.55-42.95-23.24-66.06-1.88-9.28-2.04-18.72-3.44-28.05-1.54-10.2-5.23-19.49-10.44-28.29-.75-1.26-1.16-2.72-1.73-4.08Z"/>
  <path class="cls-59" d="M745.99,421.36c.41,11.35-3.31,20.8-9.04,29.64-1.76,2.72-3.06,2.43-4.66-.23-10.96-18.29-20.91-37.07-28.34-57.11-1.27-3.41-1.05-4.84,2.98-6.32,13.87-5.11,28.12,5.87,34.45,16.58,3.29,5.56,5.26,11.49,4.6,17.45Z"/>
  <path class="cls-76" d="M742.96,529.01c-.36.01-.72.03-1.08.04-11.17-13.52-25.25-23.41-40.18-32.24-3.2-1.89-6.58-3.35-4.87-8.72,8.22-25.87,3.49-50.44-7.96-74.34-6.97-14.55-13.46-29.36-23.58-42.1-8.63-10.87-19.14-19.82-29.96-28.41-4.16-3.3-8.24-6.72-12.61-9.73-8.11-5.58-15.04-5.51-22.9.42-5.79,4.37-12.12,7.53-18.81,10.11-1.33.66-2.66.8-3.99,0,9.3-2.84,17.19-8.25,25.27-13.46,6.79-4.38,14.05-3.6,20.59,1.02,8.93,6.31,17.26,13.39,25.63,20.42,27.96,23.47,41.09,55.67,51.78,89.07,3.81,11.91,2.84,24.49.25,36.77-.27,1.29-.09,2.76-.64,3.9-4.24,8.68.24,12.6,7.49,16.72,11.83,6.73,22.72,14.97,31.88,25.25,1.45,1.63,2.89,3.21,3.69,5.26Z"/>
  <path class="cls-86" d="M694.99,702.99c2-.66,4-1.33,5.99-1.99-.86,1.87-2.76,2.3-4.36,3.12-21.11,10.81-43.29,18.58-66.66,22.59-11.24,1.93-22.57,3.24-34.06,3.48-6.93.14-13.91,1.06-20.86.72-23.63-1.16-47.23-2.55-70.48-7.49-9.23-1.96-18.48-3.81-27.55-6.43-1.73-.5-3.59-.67-5.01-1.97-.36-.51-.29-.97.19-1.37,4.37.71,8.51,2.31,12.82,3.29,1.43-.07,2.73.33,3.95,1.06,2.98.82,6.07,1.12,9.05,1.97h0c1.49,1.21,3.51-.2,5,1.01h0c1.5,1.19,3.51-.21,5.01,1h0c6.29,1.28,12.64,2.16,19,3h0c2.63,1.19,5.49-.05,8.16.74,26.82,2.94,53.7,3.53,80.51.64,26.48-2.85,51.68-10.52,75.62-22.25,1.17-.57,2.26-1.47,3.71-1.13Z"/>
  <path class="cls-52" d="M771.92,608.98c2.39-6.88,5.58-13.49,6.99-20.72,2.24-11.5.6-22.64-2.2-33.9-6.9-27.73-20.74-52.04-36.49-75.39-10.31-15.29-20.49-30.62-29.19-46.9-1.01-1.89-2.3-3.72-2.06-6.05,5.38,6.82,8.42,14.99,12.82,22.39,8.4,14.11,18.59,27.02,27.1,41.05,10.86,17.91,20.99,36.23,27.1,56.39,5.1,16.84,7.74,33.94,1.93,51.22-1.37,4.07-3.3,7.95-4.97,11.91-.34.41-.68.41-1.02-.01Z"/>
  <path class="cls-2" d="M446.97,543.99c-15.06,20.41-21.69,43.49-20.82,68.62.94,27.03,11.41,49.42,32.52,67.17,7.45,6.26,15.3,9.42,24.28,11.25.83-.09,1.47.31,2.08.78,1.05,1.23,3.12.56,3.98,2.15-10.3-2.65-20.64-3.94-29.65-11.36-28.66-23.58-38.04-53.84-33.65-89.51,2.02-16.45,7.51-31.67,16.87-45.41.92-1.36,2.12-2.53,3.19-3.78.44-.51.85-.48,1.2.1Z"/>
  <path class="cls-52" d="M694.99,702.99c-23.74,12.41-48.96,20.33-75.46,23.72-20.73,2.65-41.6,3.3-62.51,1.47-5.75-.51-11.56-.68-17.34-1.21-1.61-.15-3.37.43-4.73-.95.2-.15.41-.31.61-.46,1.5.05,3.04-.46,4.47.39,17.43,1.34,34.9,1.16,52.36,1,32.82-.31,64.1-7.45,93.79-21.54,2.83-1.34,5.85-2.3,8.79-3.43l.02,1.02Z"/>
  <path class="cls-9" d="M577.01,344.05c1.33,0,2.66,0,3.99,0-11.74,5.13-23.24,3.53-34.58-1.32-2.75-1.17-5.5-2.44-8.01-4.04-8.73-5.54-16.89-4.36-25.01,1.4-19.77,14.03-37.41,30.15-50.57,50.73-5.18,8.09-9.54,16.65-13.79,25.25-.56-.68-.63-1.37-.04-2.08,5.61-14.17,13.84-26.81,23.29-38.62,11.8-14.75,26.39-26.48,41.69-37.44,8.84-6.33,17.33-5.53,25.94-.27,4.74,2.89,9.7,5.03,15.05,6.37,7.34,2.26,14.68,1.71,22.02,0,0,0,0,0,0,0Z"/>
  <path class="cls-42" d="M351.02,445.01c.34,0,.67,0,1.01,0,1.7,1.69.96,3.7.75,5.64-.71,6.48-.88,12.92,1.19,19.24,1.84,5.64,5.37,9.88,10.57,12.7,4.43,2.4,6.25,1.86,7.91-2.92,4.74-13.65,9.86-27.18,14.02-41.03,1.96-6.52,3.75-13.1,5.99-19.53.87-2.5,1.11-4.83-.45-7.11,3.86-1.84,5.34-.9,4.12,3.43-5.02,17.73-10.29,35.37-16.63,52.68-1.83,4.99-3.69,9.96-5.47,14.97-1.03,2.89-2.86,4.38-6.02,3.95-8.59-1.78-16.21-10.43-17.99-19.86-1.42-7.52-.91-14.85,1.01-22.16Z"/>
  <path class="cls-49" d="M490,694c1.37-1.81,2.95-.72,4.52-.37,25.1,5.6,50.34,9.68,76.16,10.56,23.54.81,46.6-1.38,69.46-6.74,1.58-.37,3.27-.29,4.92-.43-4.31,3.51-9.81,3.08-14.77,4.4-.76.2-1.64-.07-2.33.49h0c-22.07,3.95-44.21,5.45-66.67,3.72-22.43-1.72-44.56-4.88-66.41-10.14-.94-.23-2.01.17-2.85-.6-.68-.3-1.35-.6-2.03-.91Z"/>
  <path class="cls-17" d="M722.04,660.11c1.85-3.46,4.83-6.01,7.83-8.22,3.14-2.3,5.16-5.01,6.37-8.56,5.12-15.08,10.29-30.08,12.98-45.91,3.1-18.21.78-35.27-7.83-51.55-.62-1.17-1.04-2.43-1.55-3.66-.32-.45-.29-.86.13-1.23,10.28,15.47,13.4,32.6,11.55,50.8-1.91,18.83-8.07,36.57-14.82,54.06-2.57,6.66-9.15,10.13-14.66,14.27Z"/>
  <path class="cls-57" d="M492.03,694.91c9.78,1.81,19.55,3.7,29.34,5.4,34.11,5.93,68.3,7.73,102.62,1.79,1.29-.22,2.64-.13,3.96-.18-7.11,3.06-14.81,2.98-22.28,3.95-12.39,1.61-24.9,1.61-37.34,1-25.23-1.24-50.14-4.94-74.7-10.93-.58-.14-1.07-.68-1.6-1.03Z"/>
  <path class="cls-27" d="M472.01,714.01c0,.34,0,.67,0,1.01-23.46-6.7-45.67-16.33-66.3-29.35-6.67-4.21-13.48-8.49-18.68-14.68,0,0,.08-.23.08-.23,3.07-.92,3.73,2.53,5.91,3.24h0c2.58,2.12,5.28,4.06,8,6h0c4.37,3.47,9.36,5.95,14,9h0c3.45,2.4,7.53,3.64,11.01,5.99h0c4.45,1.75,8.52,4.32,12.99,6.01,1.66.67,3.32,1.34,4.98,2.01,9.28,3.38,18.38,7.27,27.98,9.71.45.42.47.86.04,1.3Z"/>
  <path class="cls-62" d="M449.01,414c.01.69.02,1.38.04,2.08-4.06,11.36-8.53,22.55-10.49,34.6-2.91,17.97-2.11,35.01,10.12,49.83.29.35.31.93.46,1.41-.26.1-.52.19-.78.29-6.64-4.99-9.23-12.36-11.3-19.88-3.34-12.12-2.44-24.36.17-36.43,2.38-11,6.16-21.6,10.86-31.85.3,0,.61-.01.91-.04Z"/>
  <path class="cls-67" d="M697.06,311.85c3,8.83,1.46,18.11,2.66,27.12.28,2.12,0,4.34,1.14,6.31.57,6.05,3.18,11.45,5.37,16.99,1.1,2.77,3.35,2.77,5.81,2.41,6.51-.94,12.87-.36,18.97,2.23.52.4.51.78-.05,1.14-6.61-1.95-13.37-2.44-20.2-1.86-3.1.26-4.96-.8-6.16-3.71-3.63-8.79-6.5-17.72-6.73-27.36-.16-6.63-.68-13.24-1.04-19.86-.43-1.17-.65-2.32.22-3.4Z"/>
  <path class="cls-77" d="M446.97,543.99c-.4-.03-.8-.06-1.2-.1,3.97-6.65,10.22-10.73,16.64-14.56,2.84-1.7,5.89-3.07,8.85-4.57,7.1-3.6,7.52-6.38,1.36-11.61-5.69-4.83-11.51-9.51-16.74-14.86-.68-.7-1.25-1.52-1.87-2.29-.57-.65-.65-1.31-.02-1.98,6.86,7.37,14.87,13.5,22.06,20.51,3.86,3.76,2.81,7.9-2.57,10.7-6.61,3.44-13.2,6.85-19.09,11.5-2.75,2.17-5.23,4.55-7.42,7.25Z"/>
  <path class="cls-81" d="M347.19,595.7c.12-.25.1-.5-.06-.72-.53-9.99-.5-19.98,0-29.97.87-2.58,1.13-5.25,1.03-7.95.66-3.28,1.31-6.57,1.97-9.85,1.27-3.8,2.54-7.59,3.81-11.39.84,1.06.72,2.16.13,3.28-3.02,13.04-5.97,26.08-6.05,39.59-.06,10.82,1.42,21.41,3.68,31.94.28,1.28,2.5,3.45-.77,4.3-.27-4.49-1.72-8.74-2.72-13.08-.19-2.07-.03-4.21-1.03-6.14Z"/>
  <path class="cls-18" d="M689.01,437.99c-6.66-19.94-15.34-38.92-26.75-56.61-.88-1.37-2.29-2.47-2.39-4.29,4.34,2.65,6.33,7.28,8.59,11.35,8.46,15.28,16.13,30.97,21.65,47.6.52,1.56.7,3.23,1.04,4.85-.18.13-.36.26-.54.39-1.87-.44-.56-2.44-1.6-3.28Z"/>
  <path class="cls-21" d="M799.77,598.92c-1.66,2.91-1.33,6.61-3.71,9.23-.88-1.02-.7-2.1-.17-3.2,1.36-5.65,2.72-11.3,4.09-16.95,1.23-1.87-.19-4.15.92-6.04.03-.65.05-1.31.08-1.96.83-6.34.83-12.68,0-19.02,0-.33-.02-.65-.04-.98-1.24-2.21.35-4.82-.96-7.02-1.06-5.26-2.12-10.53-3.18-15.79-.36-.82-.48-1.63.24-2.34,5.47,14.87,6.79,30.27,5.39,45.92-.54,6.08-1.75,12.1-2.65,18.15Z"/>
  <path class="cls-50" d="M739.97,540.98c-.04.41-.09.82-.13,1.23-11.64-17.88-28.7-29.37-46.71-39.78-1.51-.87-3.36-1.55-4.19-3.37.67-.68,1.33-.63,2,0,13.94,8.71,28.3,16.86,39.66,29.09,3.63,3.9,7.03,7.97,9.38,12.82Z"/>
  <path class="cls-60" d="M407.02,659.98c8.44,4.9,16.56,10.34,25.53,14.29,2.24.99,4.41,2.03,7.71,2.58-2.72-4.45-6.06-7.55-7.23-11.88,4.32,3.65,6.53,9.13,11,12.67.37.29.6,1.47.37,1.71-.93.95-2.13.63-3.23.16-8.98-3.82-18.03-7.51-26.19-12.98-2.86-1.92-6.17-3.31-7.95-6.55Z"/>
  <path class="cls-67" d="M454,494.03c0,.66.02,1.32.02,1.98-5.86-5.75-8.34-13.15-9.45-20.94-2.17-15.32.48-30.06,6.29-44.3.57.42.65.93.25,1.51-2.89,11.09-6.19,22.1-5.97,33.74.2,10.21,2.37,19.79,8.85,28.02Z"/>
  <path class="cls-65" d="M451.12,432.27c-.08-.5-.16-1-.25-1.51,3.72-12.52,9.67-23.99,16.68-34.91,4.54-7.06,8.61-14.56,15.55-19.77-1.88,4.51-5.66,7.64-8.45,11.49-9.98,13.79-17.13,29.04-23.54,44.69Z"/>
  <path class="cls-6" d="M757.83,389.31c.65,2.14,1.65,4.09,3.11,5.79,1.65,4.35,3.31,8.7,4.96,13.05,1.5,8.82,2.97,17.65,1.25,26.62-.28,1.45-.7,2.87-1.05,4.3-.4.51-.78.5-1.13-.06,3.42-18.32-.48-35.21-10-50.99.38-.58.8-.61,1.27-.11.53.46,1.06.93,1.59,1.39Z"/>
  <path class="cls-62" d="M439.01,539.98c-.02-.37-.05-.74-.07-1.11-1.1-2.12.84-2.95,1.84-4.07,5.12-5.7,11.07-10.34,17.85-13.97,5.01-2.67,5.11-3.52.54-7.05-3.16-2.44-6.04-5.12-8.79-7.98-.94-.98-2.63-1.8-1.51-3.69,0,0,.26-.21.26-.21,4.54,4.11,9.1,8.21,13.63,12.34,4.27,3.89,4.2,4.8-1.17,7.42-6.95,3.39-13.01,7.92-18.27,13.54-1.47,1.57-2.88,3.18-4.32,4.77Z"/>
  <path class="cls-18" d="M690.93,499.07c-.67,0-1.33,0-2,0-4.42-3.34-2.7-7.26-1.06-11.17,1.24-2.83,1.11-5.98,2.13-8.86h0c2.5-11.79,3.59-23.6.52-35.48-.2-.77-.14-1.65.28-2.41,0,0,.34-.25.34-.25,3.37,8.18,3.34,16.83,2.59,25.34-.69,7.85-2.13,15.68-4.48,23.26-1.12,3.6-.88,6.74,1.67,9.59Z"/>
  <path class="cls-7" d="M610,217.04c.38-.07.76-.14,1.14-.2,12.39,7.24,23.35,15.96,29.86,29.21.32,1.67.64,3.34.96,5.01-1.91.6-1.08-1.58-2-1.98-5.11-15.04-17.09-23.47-29.93-31.06-.36-.21-.48-.43-.37-.65.11-.22.23-.34.35-.34Z"/>
  <path class="cls-74" d="M639.96,249.08c.67.66,1.33,1.32,2,1.98.32,1.27.85,2.54.9,3.82.15,3.35,1.86,4.35,5.07,4.51,7.06.37,14.11,1.14,20.09,5.57.52.44.48.82-.12,1.15-7.18-3.05-14.47-5.6-22.46-5.09-1.89.12-3.09-.8-3.48-2.78-.6-3.07-1.33-6.11-2.01-9.17Z"/>
  <path class="cls-71" d="M528.05,209.19c1.3-.11,2.6-.21,3.89-.32.27.25.37.51.3.77-.07.27-.15.41-.24.41-10.52,2.74-20.14,7.46-29.31,13.2-1.55.97-3.07,1.97-4.61,2.96-.53-.36-.56-.75-.08-1.18,2.48-3.1,6.51-4.12,9.25-6.87,6.93-2.99,13.86-5.98,20.79-8.98Z"/>
  <path class="cls-4" d="M610,217.04c0,.33.02.66.02.98-4.74-1.96-9.46-3.95-14.22-5.86-8.66-3.49-17.9-4.4-27-5.98,1.19-1.39,2.67-1.09,4.16-.7,2.32.41,4.75-.49,7.02.58h0c1.4,1.31,3.55-.42,4.88,1.21,1.17,1.22,2.67.76,4.07.83,7.13,2.73,14.41,5.09,21.07,8.93Z"/>
  <path class="cls-6" d="M797.03,534.85c-.08.78-.16,1.56-.24,2.34-3.74-10.35-8.12-20.44-12.68-30.45,2.61.23,2.11,3.23,3.81,4.27,1.98,4.39,3.97,8.79,5.95,13.18,1.05,3.55,2.11,7.11,3.16,10.66Z"/>
  <path class="cls-82" d="M498,225.04c.03.39.05.78.08,1.17-7.79,6.26-14.17,13.8-19.96,21.89-.44.46-.85.43-1.22-.08,2.51-5.27,6.81-9.24,10.07-13.98,3.94-2.68,6.53-7,11.02-9.01Z"/>
  <path class="cls-44" d="M370.75,396.89c6.89-3.82,14.43-5.25,22.16-5.95,2-.02,3.99-.03,5.99-.05-4.15,2.32-8.97,1.39-13.33,2.78-4.1,1.3-8.3,2.28-12.46,3.41-.83.53-1.63.58-2.36-.19Z"/>
  <path class="cls-60" d="M471.93,713.01c-9.84-1.86-19.04-5.51-27.94-10.01,9.99,2.45,19.51,6.26,29.07,9.95-.35.44-.73.46-1.13.06Z"/>
  <path class="cls-73" d="M537.21,206.28c1.65-.33,3.3-.65,4.95-.98,8.68-1.26,17.4-1.68,26.15-1.25,1.59.08,3.35-.42,4.66,1.02-7.29,1.21-14.71-.27-21.98,1.08-.53.14-1.07.26-1.61.35-2.24.31-4.78-.77-6.63,1.41-.16-.07-.33-.1-.51-.08-1.64-.9-3.61.61-5.2-.7-.05-.3,0-.59.16-.86Z"/>
  <path class="cls-27" d="M730.96,368.05c.02-.38.03-.76.05-1.14,8.51,2.01,14.74,7.3,20.02,13.95.46.49.42.94-.13,1.33-5.92-5.73-11.79-11.55-19.94-14.14Z"/>
  <path class="cls-60" d="M771.92,608.98c.34,0,.68,0,1.02.01-4.26,7.22-7.99,14.84-15.01,19.97,4.66-6.66,9.33-13.32,13.99-19.99Z"/>
  <path class="cls-61" d="M697.06,311.85c-.07,1.13-.14,2.26-.22,3.4-2.24-7.48-4.48-14.97-6.72-22.45,2.81.67,2.1,3.79,3.7,5.3.67,4.68,3.22,8.92,3.23,13.76Z"/>
  <path class="cls-65" d="M760.96,453c-.12.47-.13,1.03-.39,1.4-3.57,4.98-4.12,9.72.82,14.24.51.47.51,1.5.74,2.27-8.25-8.57-8.41-7.5-1.22-19.98.63.68.64,1.37.04,2.08Z"/>
  <path class="cls-57" d="M627.95,701.92c5.5-2.32,11.7-2.23,17.1-4.9,1.32-.34,2.63-.67,3.95-1.01,1.32-.79,2.64-.84,3.98-.05-7.99,3.48-16.32,5.51-25.03,5.96Z"/>
  <path class="cls-51" d="M687.99,681c6.29-3.43,12.59-6.87,18.88-10.3.5.38.53.79.09,1.23-6.04,3.87-12.03,7.83-18.91,10.11-.61-.32-.63-.67-.06-1.05Z"/>
  <path class="cls-84" d="M687.99,681c.02.35.04.7.06,1.05-5.71,2.61-11.41,5.23-17.12,7.84-.57.68-1.28.6-2.01.35-.31-.44-.3-.88.02-1.31,6.35-2.64,12.7-5.28,19.05-7.92Z"/>
  <path class="cls-46" d="M445.87,260.96c.35-.32.7-.65,1.06-.97,5.05-.69,10.1-.71,15.15.01,1.88.31,3.75.61,5.63.92.77-.37,1.52-.49,2.24.11-1.22,1.6-3.06,1.34-4.53.99-6.47-1.51-13.03-.75-19.54-1.07Z"/>
  <path class="cls-88" d="M668.94,688.92c0,.3,0,.61,0,.91-4.44,3.57-10.16,3.9-15.19,5.95-.27,0-.53.07-.77.18-1.33.02-2.65.04-3.98.05,6.33-3.28,13.26-4.83,19.95-7.1Z"/>
  <path class="cls-81" d="M667.9,266.12c.04-.38.08-.77.12-1.15,5.63,2.64,9.71,6.97,13.13,12.02-.38.51-.78.54-1.21.07-3.6-4.1-7.47-7.91-12.04-10.94Z"/>
  <path class="cls-60" d="M750.97,626.99c.26,2.42-.35,4.76-1.13,7.21,2.38-.05,3.11-2.49,5.1-2.25-1.82,2.16-3.61,6.23-6.18,5.1-2.31-1.02.6-4.54,1.03-6.99.19-1.09.01-2.35,1.17-3.08Z"/>
  <path class="cls-63" d="M679.94,277.06c.4-.02.81-.05,1.21-.07,3.48,2.73,4.7,7.16,7.71,10.25.18,1.65,2,2.93,1.07,4.82-3.33-5-6.66-10-9.99-15Z"/>
  <path class="cls-57" d="M358.1,524.02c.21-4.07,2.4-7.52,3.54-11.3.57-1.87,1.68-3.7.27-5.66.69-.01,1.39-.03,2.08-.04-.69,6.1-2.21,11.92-5.89,16.99Z"/>
  <path class="cls-64" d="M422.89,274.85c.09-.51.18-1.03.27-1.54,3.94-3.55,7.59-7.52,12.93-9.09-4.4,3.54-8.8,7.09-13.2,10.63Z"/>
  <path class="cls-59" d="M549.73,205.92c7.69-1.91,15.51-.36,23.25-.85,0,0,0,0,0,0,.26.13.38.3.37.51,0,.23-.04.35-.11.35-1.48.08-2.95.17-4.43.25-4.56-.01-9.13-.03-13.69-.04-1.82.51-3.64.82-5.39-.22Z"/>
  <path class="cls-27" d="M469.95,261.03c-.75-.04-1.49-.07-2.24-.11,4.08-3.58,5.48-9.06,9.2-12.9.41.03.81.05,1.22.08-2.72,4.31-5.45,8.62-8.17,12.93Z"/>
  <path class="cls-54" d="M415.01,688.99c-5.21-2.15-10.2-4.64-14-9,5.01,2.46,10,4.96,14,9Z"/>
  <path class="cls-5" d="M653.75,695.78c5.06-1.98,10.13-3.97,15.19-5.95.66.02,1.33.03,1.99.05-5.23,3.42-11.07,5.05-17.18,5.9Z"/>
  <path class="cls-52" d="M526.99,724.99c-6.53.21-12.84-.93-19-3.01,6.46.2,12.79,1.24,19,3.01Z"/>
  <path class="cls-42" d="M760.96,453c-.01-.69-.03-1.38-.04-2.07,1.35-3.97,2.7-7.94,4.05-11.91.38.02.75.04,1.13.06-.05.98-.09,1.96-.14,2.94-2.21,3.42-2.24,7.83-5,10.99Z"/>
  <path class="cls-74" d="M800.97,560.99c1.47,6.34,1.48,12.68,0,19.02,0-6.34,0-12.68,0-19.02Z"/>
  <path class="cls-54" d="M439.01,700.99c-4.92-.73-8.96-3.36-12.99-6.01,4.94.69,8.97,3.35,12.99,6.01Z"/>
  <path class="cls-74" d="M795.89,604.96c.06,1.07.12,2.13.17,3.2-.57,2.78-1.59,5.37-3.32,7.64-1.01-4.21,1.7-7.34,3.15-10.84Z"/>
  <path class="cls-52" d="M471.93,713.01c.38-.02.76-.04,1.13-.06,3.94,1.47,8.3,1.67,11.95,4-4.59.13-8.64-2.11-13-2.94-.03-.33-.05-.67-.08-1Z"/>
  <path class="cls-54" d="M426.02,694.98c-4-1.39-8.03-2.72-11.01-5.99,4.01,1.37,8.06,2.67,11.01,5.99Z"/>
  <path class="cls-44" d="M401.07,370.06c.18-5.35-.8-10.78.92-16.04-.25,5.35.94,10.78-.92,16.04Z"/>
  <path class="cls-44" d="M399.93,388.95c.61-5.29-.81-10.72,1.06-15.93-.33,5.31,1.16,10.74-1.06,15.93Z"/>
  <path class="cls-59" d="M537.05,207.14c1.68.6,3.67-1.06,5.2.7-3.42.74-6.84,1.48-10.25,2.22-.02-.39-.04-.79-.06-1.18,1.7-.58,3.41-1.16,5.11-1.74Z"/>
  <path class="cls-46" d="M334.96,432.88c1.28-3.2,2.17-6.62,5.04-8.91-.85,3.76-2.88,6.97-4.82,10.23-.58-.35-.65-.79-.23-1.32Z"/>
  <path class="cls-36" d="M706.97,671.93c-.03-.41-.06-.82-.09-1.23,2.45-2.26,5.23-4.02,8.16-5.58-1.3,3.91-5.36,4.56-8.07,6.81Z"/>
  <path class="cls-3" d="M370.75,396.89c.79.06,1.57.12,2.36.19-3.02,1.35-5.77,3.36-9.15,3.88.4-.58.8-1.17,1.21-1.75,1.65-1.27,3.51-2.05,5.58-2.32Z"/>
  <path class="cls-54" d="M401.01,679.99c-3.34-1.1-6.06-3.02-8-6,3.21,1.27,5.99,3.12,8,6Z"/>
  <path class="cls-27" d="M345.16,415.24c1.46-.85,2.14-2.71,3.99-3.06-1.23,3.04-3.45,5.17-6.27,6.73.76-1.22,1.52-2.44,2.28-3.67Z"/>
  <path class="cls-82" d="M750.9,382.19c.04-.44.09-.89.13-1.33,2.39,1.87,4.03,4.29,5.2,7.06-.42.04-.84.07-1.27.11-1.36-1.95-2.71-3.89-4.07-5.84Z"/>
  <path class="cls-54" d="M393.01,674c-2.56,0-3.49-2.98-5.91-3.23-.01-.61-.03-1.21-.04-1.82,2.92.58,4.4,2.86,5.95,5.05Z"/>
  <path class="cls-63" d="M334.96,432.88c.07.44.15.88.22,1.31-.98,2.3-.98,5.04-3.07,6.85.05-.91.09-1.82.14-2.73.9-1.81,1.8-3.62,2.7-5.44Z"/>
  <path class="cls-52" d="M498,719.98c-3.19.14-6.21-.48-9.05-1.97,3.21-.23,6.27.22,9.05,1.97Z"/>
  <path class="cls-65" d="M354.08,539.1c-.04-1.09-.09-2.19-.13-3.28.17-1.57.04-3.28,1.96-3.99.1,2.6-.58,5.01-1.82,7.27Z"/>
  <path class="cls-52" d="M534.96,726.01c-2.65-.37-5.51.84-7.98-1.02,2.67,0,5.34,0,8.02-.02.33.21.44.42.34.64-.1.22-.2.33-.31.33l-.07.07Z"/>
  <path class="cls-64" d="M438.19,263.17c1.2-1.74,2.9-2.22,4.9-1.96-1.04,2.15-3.04,1.88-4.9,1.96Z"/>
  <path class="cls-74" d="M799.97,552.99c1.65,2.16.77,4.66.96,7.02-1.79-2.14-.7-4.67-.96-7.02Z"/>
  <path class="cls-59" d="M542.76,207.92c1.35-2.97,4.08-1.52,6.23-1.95.33.23.44.47.33.7-.11.23-.22.35-.33.35-2.08.3-4.15.6-6.23.9Z"/>
  <path class="cls-74" d="M800.89,581.96c-.11,2.04.64,4.22-.92,6.04.18-2.03-.71-4.23.92-6.04Z"/>
  <path class="cls-67" d="M355,406.99c.82-1.65,2.18-2.62,3.91-3.12-.61,1.9-1.86,3.01-3.91,3.12Z"/>
  <path class="cls-67" d="M351.15,410.1c.66-1.82,2.05-2.73,3.86-3.11-.72,1.73-1.96,2.83-3.86,3.11Z"/>
  <path class="cls-4" d="M548.99,207.02c0-.35,0-.7,0-1.05.24-.13.49-.14.74-.05,1.8.07,3.59.15,5.39.22-1.87,1.53-4.07.7-6.13.88Z"/>
  <path class="cls-3" d="M360.05,403.11c1.02-1.25,2.31-2.03,3.94-2.16-.81,1.64-1.89,2.78-3.94,2.16Z"/>
  <path class="cls-60" d="M535.03,725.94c-.02-.32-.03-.64-.03-.97,1.7.21,3.6-.62,5.04.97-1.67,0-3.34,0-5.01,0Z"/>
  <path class="cls-52" d="M503,720.99c-1.7-.17-3.58.56-5-1.01,1.69.2,3.61-.72,5,1.01Z"/>
  <path class="cls-52" d="M508,721.99c-1.7-.16-3.58.56-5.01-1,1.7.18,3.62-.72,5.01,1Z"/>
  <path class="cls-86" d="M709.96,695.96c1.08-1.97,2.95-2.64,5-3-1.05,2.03-2.93,2.68-5,3Z"/>
  <path class="cls-86" d="M704.94,698.93c1.13-1.92,2.97-2.63,5.03-2.97-1.06,2.03-2.92,2.71-5.03,2.97Z"/>
  <path class="cls-7" d="M714.84,923.82c-13.03,2.18-25.1-9.25-26.96-22.88-3.31-24.2,2.75-47,9.56-69.72,2.86-9.54,6.23-18.9,12.35-27.02,10.34-13.69,25.06-15.72,39.51-10.04,6.02,2.37,10.69,2.7,16.28-1.98,7.26-6.08,16.66-7.09,25.94-5.82,8.08,1.11,14.71,4.41,17.77,13.03,1.49,4.2,6.35,4.85,10.61,2.33,10.68-6.33,21.89-5.24,31.23,3.05,1.82,1.62,2.76,3.57,2.87,6.1.27,5.9,5.39,8.35,10.37,5.09,7.12-4.66,12.95-3.54,17.81,3.37,7.43,10.58,10.94,22.59,12.76,35.18,3.5,24.14-3.23,46.91-9.58,69.7-1.78,6.37-3.5,12.79-6.8,18.65-6.62,11.74-22.47,11.07-30.48,4.51-4.55-3.73-2.47-9.84-1.71-14.6,2.39-14.98,6.25-29.75,8.23-44.77,1.2-9.13,1.96-18.49,1.39-27.82-.41-6.64.27-13.24.96-19.84.29-2.77-.69-4.6-3.92-4.26-2.36.94-2.63,3.33-3.46,5.23-14.02,32.05-19.46,66.17-24.08,100.48-.47,3.5,1.01,7.46-2.36,10.3-7.08,5.65-14.74,6.83-23.16,3.28-5.98-2.52-7.8-5.23-6.93-11.52,1.29-9.32,2.6-18.63,4.09-27.92,2.55-15.96,5.16-31.9,7.9-47.83,2.33-13.54,3.83-27.14,3.96-40.88.02-2.34.4-4.87-2.98-5.3-2.81-.29-3.7,1.87-4.51,3.8-9.13,21.77-18.08,43.67-23.26,66.74-3.78,16.83-5.64,34.06-5.87,51.39-.04,2.78.56,5.69-1.22,8.22-6.41,2.58-13.04,3.01-19.76,1.74-10.7-2.03-18-11.26-18.44-22.26-.87-21.86,2.96-43.05,8.16-64.14,2.17-8.78,2.76-17.94,5.85-26.53,1.62-4.51,3.67-8.9,4.84-13.52.53-2.08,1.72-6.66-3.79-4.37-4.96,4.89-7.53,11.33-11,17.17-12.56,21.12-19.41,44.07-21.51,68.49-.3,3.48-.26,6.99.07,10.48.15,1.63.73,3.32-.69,4.72Z"/>
  <path class="cls-7" d="M232.98,930.88c-5.07,2.77-8.67,2.1-13.83-2.32-6.66-5.71-8.71-13.64-9.97-21.68-1.62-10.3-2.91-20.75-2.04-31.18,1.56-18.89,1.51-38.06,8.84-56.07,4.2-10.31,11.59-16.77,22.45-19.29,1.51-.35,2.93-.46,4.41-.04,6.55,1.86,12.1.57,16.42-5.03,5.01-6.5,11.94-8.39,19.81-8.39,4.42,0,8.3,1.22,11.4,4.13,3.32,3.11,7.38,3.97,11.1,2.64,6.2-2.21,11.09,0,15.78,3.22,5.23,3.6,10.2,5.31,17.05,4.36,16.22-2.25,33.47,9.26,39.57,25.1,3.11,8.08,4.54,16.45,5.25,25.13.65,7.97,1.12,15.94.7,23.86-.78,14.53-2.29,29.04-7.09,42.9-2.24,6.46-5.32,12.55-11.24,16.63-3.09,2.13-6.08,2.27-9.13,0-4.94-3.68-8.93-7.28-8.63-14.72.67-16.46.68-32.98.08-49.45-.63-17.1-5.59-33.36-11.83-49.22-.9-2.29-1.98-2.91-4.05-1.55-2.38,3.35-2.56,7.36-2.1,11.01,1.36,10.95.81,21.96,1.33,32.92.66,13.61,1.84,27.25,1.36,40.92-.17,4.99.01,9.97.71,14.95.91,6.55-.79,12.88-2.25,19.2-3.56,10.08-11.83,11.58-21.73,9.41-12.14-2.67-12.21-5.27-13.14-18.72-1.05-15.21,1.56-30.45.83-45.72-.59-12.35-2.38-24.57-3.67-36.85-.88-8.38-.32-16.92-.32-25.39,0-2.77-.19-5.16-3.94-4.62-3.37,1.78-4.01,5.11-4.66,8.37-2.53,12.73-3.73,25.64-4.88,38.55-1.4,15.76-.81,31.55-1.04,47.33-.11,7.67.42,15.28,1.31,22.87.24,2.01.41,3.98-.73,5.8-6.89,4.47-11.55,4.04-17.24-1.63-5.14-5.13-7.74-11.08-7.99-18.61-.46-13.45-.06-26.97-1.08-40.34-1.24-16.33-3.02-32.6-2.82-49.01.02-1.61-.77-3.21-.9-4.84-.28-3.46-2.01-2.78-4.02-1.57-1.27,1.96-2,4.09-2.68,6.35-6.33,21.1-7.18,42.81-6.62,64.55.26,9.9.5,19.89,1.96,29.75.32,2.14.44,4.29-.74,6.27Z"/>
  <path class="cls-8" d="M723.87,779.8c-13.5-9.18-28.26-14.48-44.7-14.93-24.87-.68-47.81,6.66-70.19,16.56-11.3,5-22.36,10.35-31.48,18.88-3.63,3.39-6.65,7.43-10.21,10.91-8.62,8.44-16.69,7.53-23.85-2.01-10-13.31-22.96-23.6-36.39-33.07-29.96-21.11-61.38-21.59-93.57-5.13-14.08,7.19-27.77,15-40.21,24.83-1.43,1.13-3.17,1.93-3.23,4.11-4.55-3.32-9.43-6.07-14.81-8.34,5.02-6.3,11.43-10.78,17.88-15.09,20.75-13.85,43.23-24.11,68.03-27.26,29.88-3.79,56.92,4.49,80.75,23.08,10.23,7.99,17.87,18.3,25.82,28.33,2.1,2.65,4.36,4.94,7.45,6.43,3.69,1.79,6.86.86,9.52-1.84,21.62-21.89,47.25-37.32,76.25-47.24,15.24-5.22,30.91-9.12,47.1-7.91,22.71,1.69,43.01,9.14,57.65,27.88.37.48.68,1,1.57,2.31-8.37-1.06-15.88-1.63-23.38-.5Z"/>
  <path class="cls-59" d="M771.12,952.05c-.33-31.19,3.81-61.58,15.1-90.91,4.58-11.89,8.74-23.95,13.79-35.66,1.04-2.4,2.05-5.63,5.97-3.58-4.15,3.54-4.31,8.81-5.6,13.49-4.03,14.5-7.87,29.05-10.04,43.98-2.12,14.55-4.27,29.09-6.37,43.64-1.08,7.52-2.05,15.06-3.13,22.59-.82,5.74-5.44,5.86-9.72,6.45Z"/>
  <path class="cls-59" d="M823.11,952.06c.95-8.05,1.65-16.14,2.88-24.14,4.25-27.54,8.62-55.07,19.91-80.89.93-2.13,1.49-4.42,2.4-6.55.9-2.11,1.7-4.49,4.71-4.42-4.23,13.73-8.03,27.67-9.8,41.86-2.25,18.03-6.53,35.66-9.15,53.59-.14.98-.24,2.02-.08,2.98,1.51,9.05-4.6,13.36-10.87,17.58Z"/>
  <path class="cls-59" d="M275.12,939.98c-3.52-21.28-2.37-42.75-1.79-64.11.48-17.63,2.29-35.3,5.94-52.65.62-2.93.66-7.22,5.85-6.17-1.99,7.2-2.26,14.69-2.7,22.01-.65,10.88-3.66,21.67-2.26,32.57,1.5,11.76.99,23.53.71,35.25-.19,7.92-1.74,15.97-.54,23.75.83,5.4-1.24,7.47-5.2,9.34Z"/>
  <path class="cls-59" d="M232.98,930.88c-1.95-16.62-3.28-33.3-2.8-50.03.5-17.36,1.48-34.73,6.92-51.46.74-2.27,1.59-4.38,3.96-5.43-1.3,7.46-2.57,14.93-3.91,22.38-.69,3.87,1.02,7.47.98,11.32-.18,19.93-.19,39.87-.01,59.8.05,5.31-1.38,9.72-5.14,13.41Z"/>
  <path class="cls-59" d="M327.08,938.96c1.34-11.92-.06-23.83-.04-35.75.03-22.1-2.1-44.13-2.17-66.23-.01-4.59-1.01-9.15.08-13.78.43-1.86,1.04-3.11,3.07-3.26,1.29,15.47,2.64,30.94,3.85,46.42.3,3.81.22,7.65.15,11.47-.27,14.4.93,28.8.01,43.19-.4,6.32-1.48,12.46-4.95,17.93Z"/>
  <path class="cls-59" d="M714.84,923.82c-2.4-23.03,2.81-44.76,11.62-65.76,4.69-11.18,10.61-21.77,17.61-31.71,1.01-1.43,1.57-3.46,3.91-3.38-4.8,8.5-9,17.3-13.24,26.1-6.8,14.12-9.03,29.34-11.64,44.46-1.43,8.27-2.23,16.73-2.09,25.17.08,4.55-3.82,3.78-6.17,5.12Z"/>
  <path class="cls-64" d="M462.08,260c-5.05,0-10.1,0-15.15-.01,5.05-1.68,10.1-1.64,15.15.01Z"/>
  <path class="cls-73" d="M573.24,205.93c-.16-.26-.25-.55-.26-.86,2.39-.07,4.87-.69,7.01.99-2.25-.05-4.5-.09-6.75-.14Z"/>
  <path class="cls-73" d="M584.86,207.28c-1.66-.27-3.48.11-4.88-1.21,1.72,0,3.64-.78,4.88,1.21Z"/>
  <path class="cls-8" d="M634.88,521.87c-5.49,5.84-13.17,8-19.99,11.5-8.61,4.42-18.14,6.27-27.72,7.51-3.66.47-7.27-.14-10.87-.85-7.07-1.4-14.16-2.72-21.25-4.07,1.02-1.51,3.25-.7,4.47-2.45-2.43-3.89-6.43-6.57-8.88-10.52-2.45-3.94-6.01-7.79-3.36-12.73,2.69-5.01,7.59-6.48,13.13-6.62,4.87-.12,9.13,1.34,13.29,3.61,7.61,4.15,15.49,6.02,23.9,2.34,2.3-1,4.61-1.95,6.2-4.04,2.37-2.19,4.74-4.39,7.19-6.5,2.58-1.79,4.76-4.14,7.56-5.61,4.74-2.49,9.6-2.73,14.1.34,4.66,3.18,3.99,7.95,2.97,12.6-.75,3.43-2.84,6.33-4,9.6-1.71,4.84-1.58,5.01,3.25,5.87Z"/>
  <path class="cls-48" d="M578.06,499.95c9.61,4.51,17.48,1.35,24.7-5.4,3.24-3.03,6.83-5.67,10.26-8.49,9.03-5.47,19.43-5.01,26.43.91,8.54,7.22,7.54,18.05,3.03,25.77-1.2,2.06-2.52,4.33-4.69,5.73-.14.09-.27.22-.42.25-1.95.46-3.58,3.68-5.57,1.73-1.95-1.92-.63-4.66.45-6.98,1.54-3.31,2.97-6.64,3.45-10.32.86-6.66-3.15-11.13-9.95-11.17-5.88-.03-9.77,3.61-13.72,7.18-3.1,2.11-5.89,4.61-8.57,7.23-.38.33-.78.61-1.22.85-8.66,5.01-17.48,5.43-26.45.88-.46-.16-.91-.38-1.33-.63-7.38-4.38-14.93-6.44-22.98-1.73-.36.24-.72.49-1.07.76-1.1.64-2.11,1.39-2.68,2.59-.24.37-.49.73-.75,1.09-1.97,3.22-.38,6.07.94,8.93,1.91,4.13,4.82,7.5,8.03,10.67,1.11,1.1,2.99,2.47,1.77,4.1-1.22,1.63-3.03.1-4.5-.5-.92-.37-1.81-.83-2.67-1.33-.42-.22-.8-.49-1.15-.81-2.48-2.56-5.22-4.83-7.79-7.3-10.26-14.83,3.51-27.95,17.72-28.51,6.75-.27,12.66,2.28,18.74,4.49Z"/>
  <path class="cls-8" d="M635.13,397.14c-4.16,3.16-9.1,5.36-12.13,9.89-6.09,7.86-12.2,15.71-20,22-18.26,15.35-38.61,14.08-58.2,2.19-5.24-3.18-10.32-6.66-15.3-10.26-8.33-6.02-16.68-4.64-24.75.05-4.41,2.56-8.23,6.14-12.34,9.22-2.19,1.65-4.28,3.96-7.38,1.68-.6-.58-.53-1.25-.25-1.94,4,.09,6.69-2.42,9.43-4.79,1.4-.86,2.41-2.1,3.26-3.48,3.11-4.03,7.22-6.87,11.56-9.31,8.35-4.71,16.81-4.09,25.3-.12,7.86,3.67,14.9,8.71,22.39,13,8.21,4.71,16.78,8.27,26.52,5.31,6.94-2.11,12.79-6.19,18.47-10.57,6.07-4.69,11.25-10.32,16.68-15.68,3.24-3.19,6.91-5.73,11.19-7.27,1.79-.64,3.74-1.76,5.55.09Z"/>
  <path class="cls-1" d="M597.02,613.82c-15.13.59-30.25,1.19-45.38,1.76-1.32.05-2.67.02-3.97-.21-1.97-.34-3.4-1.48-3.57-3.6-.17-2.17,1.17-3.46,3.08-3.98,1.58-.43,3.27-.61,4.91-.66,29.93-1.02,59.85-2.02,89.78-2.97,2.14-.07,4.33.09,6.42.53,1.75.37,2.81,1.79,2.83,3.67.02,1.89-1.05,3.21-2.79,3.69-1.58.44-3.27.69-4.91.69-15.46.05-30.93.03-46.4.03v1.05Z"/>
  <path class="cls-22" d="M485.04,691.81c-.83.1-1.58-.02-2.08-.78-6.39-7.18-13-14.21-18.47-22.13-11.79-17.06-19.61-35.77-22.49-56.4-1.81-12.93-2.01-25.86,1.59-38.53,4.93-17.37,16.41-29.68,31.13-39.4,5.18-3.42,9.9-7.36,12.15-13.47,2.65-7.17,1.25-12.15-4.81-17.13-6.29-4.93-11.98-10.46-17.13-16.59-7.8-9.29-7.35-20.08-5.21-30.82,4.26-21.41,12.05-41.46,25.56-58.88,10.51-13.56,21.91-26.29,35.76-36.61.99-.69,1.97-1.38,2.96-2.07.67-.51,1.34-.58,2,.03-7.46,7.29-15.57,13.86-22.9,21.32-22.28,22.7-36.5,49.51-41.87,80.86-1.87,10.94.99,20.68,9.11,28.69,4.5,4.43,9.13,8.67,14.2,12.46,7.26,5.42,7.39,18.33.74,25.98-4.67,5.37-10.85,8.71-16.27,13.05-12.38,9.92-21.82,21.86-24.95,37.77-3.94,20.02-1.15,39.45,5.78,58.49,7.12,19.56,18.64,36.18,33.2,50.84.94.95,1.96,1.83,2.01,3.32Z"/>
  <path class="cls-31" d="M525.99,359.02c-.67,0-1.33-.02-2-.03,4.99-5.41,11.06-5.06,16.92-2.38,19.78,9.01,39.28,7.63,57.95-2.31,7.75-4.13,14.03-2.91,20.48,1.01,23.43,14.24,39.86,34.53,51.09,59.38,5.79,12.8,9.46,26.13,11.99,39.89.57,3.13-.4,5.91-.8,8.78-1.22,8.85-2.69,17.68-2.59,26.63.09,8.32,4.17,14.66,10.17,20.2,8.37,7.74,19.07,11.92,27.86,19.08,11.99,9.76,18.28,22.64,21.82,37.03,5.35,21.74.05,42.7-5.71,63.56-2.21,8.01-5.21,15.74-8.12,23.51-.43,1.16-.91,2.12-2.08,2.62,2.95-8.97,6-17.9,8.83-26.91,5.43-17.24,8.6-34.9,7.06-52.98-1.68-19.7-9.45-36.55-26.2-48.2-6.81-4.74-13.99-8.94-20.86-13.59-12.62-8.53-16.9-20.76-13.5-35.12,5.24-22.19.11-42.66-8.6-62.79-6.6-15.26-15.72-28.93-27.08-40.91-7.63-8.05-16.47-14.96-26.35-20.27-5.33-2.86-10.56-2.92-16.11.16-15.44,8.59-31.92,10.48-49.12,6.68-3.79-.84-7.19-2.57-10.61-4.27-5.06-2.51-9.89-2.39-14.43,1.23Z"/>
  <path class="cls-66" d="M597.13,634.99c-7.87.58-18.01-.97-28.08.85-2.84.51-5.32-1.17-5.52-3.76-.19-2.42,2.21-3.84,4.78-4.09,18.88-1.89,37.8-.71,56.7-.85,2.61-.02,5.83.78,5.71,4.23-.12,3.52-3.17,3.65-5.97,3.64-8.47-.03-16.94-.01-27.63-.01Z"/>
  <path class="cls-40" d="M635.13,397.14c-6.34.41-11.3,3.64-15.63,7.92-7.57,7.47-15.09,14.91-23.91,21.02-13.26,9.18-26.29,8.44-39.55.37-6.66-4.06-13.19-8.32-20.08-12.02-14.97-8.03-27.13-3.56-37.94,8.61-.48.4-.91.35-1.3-.13-.67-1.68.33-2.85,1.25-4.04,6.95-8.98,21.02-13.38,32-10.03,7.09,2.17,13.31,6.05,19.5,9.97,4.36,2.76,8.69,5.57,13.39,7.75,10.38,4.81,20.25,3.95,29.9-2.21,8.78-5.6,15.91-13.1,23.5-20.05,4.62-4.24,9.2-8.18,15.54-9.39,3.41-.65,5.58-2.75,6.87-5.88.45-.37.92-.41,1.42-.1v.06c.49,1.68.74,3.36-.16,5l-4.81,3.18Z"/>
  <path class="cls-24" d="M605,506.02c-5.47,6.34-16.81,8.71-25.54,5.17-3.97-1.61-7.71-3.83-11.75-5.21-5.31-1.81-10.75-1.94-15.8,1.1-4.52,2.72-5.37,5.54-3.12,10.37,2.13,4.56,5.38,8.28,8.91,11.83,1.54,1.54,4.67,2.76,3.67,5.3-1.03,2.61-4.14,1.03-6.33,1.38-2.61-1.28-5.55-2.09-7.08-4.93.67-.66,1.35-.59,2.01.01h-.02c1.77,1.23,3.76,2.08,5.69,3.05.78.39,1.73.7,2.31.02.9-1.05-.15-1.82-.82-2.46-4.23-4.02-8.08-8.34-10.39-13.78-1.25-2.95-2.28-5.98.34-8.82l-.02.03c.65-1.35,1.66-2.35,3-3.01l-.03.02c8.57-6.27,16.77-3.49,24.91,1l-.02-.02c9.57,5.17,18.96,5.01,28.14-.98l-.03.03c.62-.7,1.27-.71,1.95-.09Z"/>
  <path class="cls-74" d="M610.97,498.99c3.38-2.59,6.31-5.69,10.59-7.14,4.84-1.64,8.83-.53,12.38,2.63,3.21,2.86,3.05,6.45,2.19,10.47-1.09,5.1-4.77,9.53-4,15.4,1.83-.81,3.43-1.53,5.04-2.24.38.68.46,1.3-.36,1.73-.64.68-1.29,1.35-1.93,2.03-.63.19-1.26.37-1.89.57-1.17.39-2.31,2-3.52.79-.97-.97-.42-2.56-.05-3.82.66-2.22,1.4-4.42,2.21-6.59.87-2.33,2.09-4.56,2.71-6.95,1-3.88,2.02-8.05-1.98-10.95-4-2.9-8.51-2.9-12.73-.61-3.03,1.64-5.7,3.93-8.54,5.93-.52-.37-.56-.79-.12-1.25Z"/>
  <path class="cls-19" d="M578.06,499.95c-3.29.29-5.98-1.63-8.97-2.46-9.81-2.73-18.7-1.47-26.03,6.03-5.65,5.78-5.6,14.11-.2,20.56,1.11,2.18,4.22,2.99,4.1,6-6.95-3.87-9.9-10.33-9.62-17.72.3-7.96,5.94-12.93,12.84-15.68,9.68-3.86,19.12-2.4,27.88,3.26Z"/>
  <path class="cls-31" d="M502.79,404.86c9.51-6.31,19.77-7.32,30.37-3.63,10.2,3.55,19.4,9.05,27.79,15.87-1.53,1.12-3.01.26-4.51-.11-5.46-2.85-10.34-6.68-15.81-9.5-10.36-5.33-21.05-7.18-32.23-2.61-1.38.56-2.77,1.17-4.34.88-.53-.14-.95-.44-1.26-.9Z"/>
  <path class="cls-84" d="M636.8,519.84c.12-.58.24-1.16.36-1.73,2.47-2.27,4.52-4.88,5.92-7.92,3.5-7.6,2.62-15.91-2.36-21-6.57-6.72-14.52-7.4-23.08-4.81-1.57.47-3.08,1.12-4.62,1.69,5.12-5.33,13.9-6.37,22.01-2.6,7.79,3.62,12.62,11.16,11.7,18.5-.91,7.27-3.34,13.74-9.92,17.89Z"/>
  <path class="cls-83" d="M528.82,448.91c4.69-5.48,10.29-8.7,17.79-7.02,6.41,1.43,10.76,5.22,12.03,11.71,1.19,6.1-.79,11.37-5.65,15.42-.38-.37-.58-.81-.61-1.33.69-3.71,3.54-6.6,3.41-10.77-.31-9.74-9.44-15.5-18.23-11.22-2.52,1.23-4.51,3.47-7.45,3.88-.53-.04-.96-.27-1.3-.67Z"/>
  <path class="cls-82" d="M556.95,416.15c1.33.32,2.67.63,4,.95,11.59,7.37,19.72,7.06,31.4-1.29,2-1.43,3.82-3.11,5.72-4.68.67-.68,1.36-.72,2.1-.1.12.68.05,1.33-.33,1.91-6.42,9.97-23.04,15.05-33.77,9.92-3.34-1.6-8-1.9-9.11-6.71Z"/>
  <path class="cls-2" d="M607,459c-4.6-5.34-4.42-12.21.89-18.88,8.85-11.1,24.75-7.2,28.03,1.93-.4.32-.85.46-1.35.41-.64-.2-1.17-.58-1.67-1.01-6.87-5.94-12.49-6.8-18.85-2.9-6.6,4.05-8.65,9.94-6.4,18.4.07.78-.08,1.49-.65,2.06Z"/>
  <path class="cls-70" d="M552.86,467.72c.05.43.09.86.14,1.29-7.86,5.5-18.46,4.2-24.63-3.03-3.71-4.34-3.54-10.56.45-17.08.49.08.97.16,1.46.23.67,1.14.3,2.26-.12,3.34-1.91,4.88-1.86,9.43,2.36,13.14,4.6,4.04,9.81,5.24,15.67,3.03,1.49-.56,2.89-1.77,4.67-.93Z"/>
  <path class="cls-76" d="M634.79,442.21c.38-.05.75-.11,1.13-.16,2.98,7.53.5,15.66-6.1,19.98-7.51,4.92-16.31,3.75-22.82-3.03-.04-.6-.08-1.2-.11-1.8,1.86-.9,2.65.84,3.71,1.63,5.13,3.83,10.71,4.56,16.24,1.55,5.66-3.08,8.42-8.16,7.67-14.81-.13-1.13-.45-2.29.29-3.35Z"/>
  <path class="cls-23" d="M599.8,410.81c-.58.11-1.16.21-1.73.32,8.24-8.98,16-18.54,27.93-23.03.33.37.48.8.44,1.29-3.43,4.07-8.68,5.71-12.43,9.52-3.32,3.38-7.12,6.34-10.5,9.73-1.02,1.03-2.01,2.24-3.71,2.16Z"/>
  <path class="cls-32" d="M502.79,404.86c.48.09.97.18,1.45.27.14,1.57-.94,2.41-2.03,3.14-7.99,5.41-13.75,12.58-17.16,21.62-.01.67-.02,1.34-.03,2.01-2.23-1.86-2.8-4.33-1.42-6.7,4.8-8.25,10.42-15.81,19.18-20.35Z"/>
  <path class="cls-87" d="M603,429.03c6.67-7.33,13.33-14.67,20-22-5.13,8.73-11.35,16.47-20,22Z"/>
  <path class="cls-73" d="M626.07,389.29c-.03-.4-.05-.8-.08-1.19,3.01-.69,5.99-1.6,9.04-2,2.12-.28,4.3.19,5.06,2.8-.39.05-.79.11-1.18.16-4.28.31-8.54,1.5-12.84.23Z"/>
  <path class="cls-12" d="M546.96,530.08c-.72-2.44-3.76-3.3-4.1-6,2.94,1.75,5.19,4.19,7.11,6.97-.67,0-1.34,0-2.01-.01-.33-.32-.67-.63-1-.95Z"/>
  <path class="cls-73" d="M639.94,393.95c.05-1.67.1-3.33.16-5,1.37,1.71,1.54,3.38-.16,5Z"/>
  <path class="cls-89" d="M419.05,637.96c3.62,8.3,5.89,17.17,10.6,25.12-6.47-4.9-11.76-10.82-16.68-17.13-12.42-15.91-17.48-34.32-19.03-54.07-.71-9.08-2.03-18.12-1.88-27.25.45-27.22,4.43-53.58,15.4-78.95,11.87-27.45,20.5-56.09,25.28-85.7,1.31-8.14,1.77-16.46,2.55-24.69,1.08-11.34-.3-22.52-.27-33.77.02-7.3-1.4-14.51-1.74-21.76-.54-11.56.23-22.98,9.35-31.82.96-.94,1.91-1.88,3.37-1.94-9.16,8.47-12,19.48-10.8,31.21,1.37,13.36,2.3,26.8,2.27,40.11-.02,9.31-.18,18.81-1.12,28.25-1.89,18.88-6.05,37.2-11.18,55.35-5.41,19.14-12.62,37.67-20.23,56-4.77,11.49-6.9,23.51-8.8,35.58-2.22,14.12-2.73,28.43-2.02,42.69.8,15.87,2.47,31.83,7.39,46.92,3.93,12.04,11.54,22.43,21.62,32.35-.99-6.51-4.43-11.06-4.09-16.49Z"/>
  <path class="cls-89" d="M448.88,502.12c1.92,4.23,5.7,6.76,8.95,9.77,1.33,1.23,2.74,2.39,4.14,3.54,2.7,2.2,2,3.71-.87,5.01-7.66,3.47-14.09,8.63-19.77,14.77-1.01,1.09-2.24,2.02-2.39,3.66-5.29,3.85-6.54,10.62-10.92,15.12,2.25-7.85,7.35-13.94,12.51-19.95,4.92-5.73,10.8-10.36,17.59-13.68,3.97-1.94,3.71-3.92.48-6.24-7.4-5.31-13.38-11.99-17.71-19.91-5.88-10.74-7.19-22.36-6.37-34.54.97-14.3,5.81-27.43,10.45-40.7.68-1.96,1.68-3.54,3.13-4.93-2.47,8.92-6.51,17.3-8.77,26.31-3.59,14.32-5.25,28.66-1.2,43.1,1.98,7.06,5,13.69,10.75,18.66Z"/>
  <path class="cls-89" d="M427.04,555.99c-2.43,8.57-6.35,16.64-8.13,25.44-3.48,17.2-4.17,34.38-.39,51.62.35,1.6.37,3.27.54,4.91-3.03-5.33-3.41-11.42-3.88-17.2-1.68-20.74,1.05-40.97,8.86-60.39.68-1.69,1.11-3.53,3-4.38Z"/>
  <path class="cls-76" d="M577.01,344.05c-7.34,2.81-14.68,2.83-22.02,0,7.34,1.17,14.68.67,22.02,0Z"/>
  <path class="cls-31" d="M521.04,361.06c-6.18,5.99-12.4,11.94-18.54,17.97-21.75,21.37-35.7,46.87-42.08,76.82-3.77,17.7,1.97,30.94,15.53,41.84,2.23,1.79,4.96,3.33,6.12,6.27-4.04-1.09-6.45-4.49-9.41-6.97-13.53-11.34-17.28-25.56-13.36-42.79,6.25-27.46,18.47-51.4,37.77-72.03,6.71-7.17,13.82-13.74,21.3-20,.8-.67,1.62-1.13,2.68-1.12Z"/>
  <path class="cls-50" d="M690.81,441.14c2.56,11.89,2.89,23.8.14,35.71-.18.76-.62,1.46-.94,2.19-.68-3.69.52-7.26,1.12-10.76,1.65-9.52.23-18.67-2.07-27.82-.2-.78-.04-1.64-.05-2.47.6,1.05,1.2,2.1,1.8,3.15Z"/>
  <path class="cls-50" d="M690.01,479.03c.05,3.14-.21,6.2-2.13,8.86.05-3.11.37-6.16,2.13-8.86Z"/>
  <path class="cls-7" d="M392,412c4.77.35,2.94,3.31,2.21,5.73-5.79,19.21-11.73,38.38-18.65,57.22-.63,1.71-1.08,3.49-1.71,5.2-2.33,6.29-4.4,6.99-10.31,3.58-8.42-4.86-11.84-12.56-12.51-21.87-.41-5.66.55-11.23,1-16.84,2.28-10.93,8.18-19.42,17.74-25.07,6.84-4.04,14.2-7.04,22.23-7.95Z"/>
  <path class="cls-34" d="M744.97,422.32c-.19,6.36-1.58,12.46-4.03,18.32-.49,1.18-.59,2.93-2.22,2.92-1.4,0-2.1-1.44-2.76-2.61-7.53-13.31-14.36-26.97-19.94-41.22-.91-2.32-1.58-4.75-2.75-6.93-1.98-3.71-1.12-4.89,3.1-4.89,7.35,0,12.69,4.13,17.36,8.7,7.05,6.9,11.58,15.34,11.24,25.71Z"/>
  <path class="cls-14" d="M625,511.82c-.03.29.01.53-.08.6-4.28,3.47-8.48,7.07-12.96,10.27-.94.67-1.74-1.13-1.85-2.34-.46-4.9,6.29-11.87,11.1-11.51,2.02.15,3.57.79,3.78,2.99Z"/>
  <path class="cls-35" d="M573.32,525.13c-.64,0-1.63.01-2.62,0-1.86-.02-3.26-.81-3.66-2.7-.47-2.22.97-3.39,2.74-4.15,4.56-1.98,14.01.36,17.09,4.13,1.13,1.39,1.88,2.97.91,4.54-1.07,1.74-2.72.6-4,.08-3.25-1.3-6.49-2.56-10.45-1.91Z"/>
  <path class="cls-12" d="M610.97,498.99c.04.42.08.83.12,1.25-2.03,1.93-4.06,3.85-6.09,5.78-.65.03-1.3.06-1.95.09,1.88-3.22,5.4-4.62,7.93-7.12Z"/>
  <path class="cls-12" d="M547.08,509.05c-2.8,8.23,3.11,13.19,7.17,18.79,1.04,1.44,2.64,2.48,3.94,3.75.8.78,2.09,1.65,1.25,2.86-.7,1.01-2.17.71-3.25.36-2.34-.78-4.7-1.61-6.23-3.77,2.4.89,4.81,1.77,7.21,2.66-4.26-5.01-8.85-9.6-11.18-15.77-1.15-3.05-2.56-6.32,1.09-8.87Z"/>
  <path class="cls-12" d="M603.07,506.09c-7.35,6.48-19.42,7.62-28.14.98,1.12.21,2.37.17,3.35.65,7.3,3.59,14.43,2.85,21.52-.61,1.02-.5,2.18-.69,3.27-1.03Z"/>
  <path class="cls-12" d="M574.95,507.09c-1.85-.65-3.78-1.13-5.54-1.97-6.66-3.17-13.05-2.21-19.37.96,2.44-3.56,6.08-4.22,10.01-4.1,5.48.17,10.85.71,14.9,5.1Z"/>
  <path class="cls-12" d="M550.07,506.07c-.68,1.33-1.68,2.33-3,3.01-.01-2.01.99-3.02,3-3.01Z"/>
  <path class="cls-48" d="M626.07,389.29c4.28-.21,8.51-3.07,12.84-.23.47,2.76-.05,5.41-3.1,5.86-12.44,1.8-19.54,11.32-27.91,18.95-7.28,6.64-14.64,13.07-24.3,16.08-7.42,2.32-14.46.92-21.28-2.27-7.25-3.4-13.73-8.1-20.58-12.17-12.45-7.4-24.98-10.14-37.63-.52-2.89,2.2-5.83,4.42-7.26,7.98-.37,1.2-1.18,2.1-2,2.99-2.97,2.04-4.67,7.24-9.79,3.94-.67-2.8.44-5.08,1.92-7.39,4.5-7.06,10.42-12.67,17.26-17.38,18.49-9.39,34.02-1.73,49.11,8.51,1.21.82,2.4,1.66,3.6,2.5,13.51,11.81,33.14,9.37,42.85-5.34,8.39-7.62,15.56-16.73,26.27-21.52Z"/>
  <path class="cls-16" d="M494.85,425.96c.1-1.37.81-2.34,2-2.99.39.02.78.04,1.17.06-.72,1.34-1.59,2.51-3.17,2.94Z"/>
  <path class="cls-48" d="M552.86,467.72c-5.18,3.38-10.63,4.65-16.51,1.96-9.06-4.13-10.82-10.16-6.07-20.54,5.07-4.3,10.35-8.06,17.54-5.51,8.64,3.07,12.08,12.41,7.52,20.35-.74,1.29-1.65,2.49-2.48,3.73Z"/>
  <path class="cls-48" d="M634.79,442.21c2.52,7.9.2,14.68-6.5,18.94-6.66,4.24-14.32,2.83-21.41-3.95-3.41-8.24-.56-15.98,7.52-20.45,7.06-3.9,15.3-1.69,20.39,5.46Z"/>
  <path class="cls-85" d="M584.06,523.89c-4.73-.37-8.53-.67-12.33-.98-.76-.06-1.31-.51-1.23-1.22.11-.89.87-1.49,1.71-1.54,3.91-.22,7.98-.94,11.85,3.73Z"/>
</svg>