<svg width="29" height="28" viewBox="0 0 29 28" fill="none" xmlns="http://www.w3.org/2000/svg">
<path d="M25.7268 13.8682C25.7268 17.8861 25.7268 21.9039 25.7268 25.9218C25.7268 26.402 25.5557 26.5732 25.0706 26.5732C17.8272 26.5732 10.5839 26.5704 3.34104 26.5808C2.90409 26.5814 2.67112 26.3123 2.73784 25.8896C2.76026 25.7463 2.76518 25.5997 2.76518 25.4543C2.76682 22.885 2.76628 20.3158 2.76628 17.7461C2.76628 17.2112 2.91393 17.0614 3.44003 17.0614C5.48096 17.0614 7.5219 17.057 9.56284 17.0674C9.78596 17.0685 9.82315 17.0001 9.82261 16.7967C9.81604 14.2821 9.81823 11.7676 9.81823 9.25254C9.81823 8.82652 9.95878 8.64386 10.3864 8.62746C11.0957 8.60011 11.8067 8.60394 12.5171 8.60285C14.3026 8.60121 16.0887 8.59957 17.8742 8.60996C18.1089 8.61105 18.1909 8.57058 18.1892 8.30918C18.1767 6.13152 18.1821 3.95441 18.1821 1.77676C18.1821 1.39394 18.3156 1.26215 18.7033 1.26215C20.8717 1.26215 23.04 1.26215 25.2084 1.26215C25.5721 1.26215 25.7263 1.41855 25.7263 1.7866C25.7263 5.81379 25.7263 9.84097 25.7263 13.8676L25.7268 13.8682Z" fill="black"/>
<path d="M20.6498 2.36525C21.9426 2.36142 23.2349 2.35923 24.5277 2.35103C24.6672 2.34993 24.7016 2.40736 24.6896 2.52876C24.6841 2.5829 24.6885 2.63814 24.6885 2.69228C24.6885 10.1763 24.6863 17.6597 24.6961 25.1437C24.6961 25.4401 24.6081 25.4937 24.3363 25.4893C23.1075 25.4707 21.8786 25.4745 20.6498 25.4707C20.5689 25.3952 20.5612 25.2952 20.5563 25.1945C20.5519 25.1038 20.553 25.0124 20.553 24.9217C20.553 17.5859 20.553 10.2506 20.5552 2.91486C20.5552 2.72892 20.5054 2.52876 20.6493 2.36525H20.6498Z" fill="#3042FE"/>
<path d="M12.6109 9.68898C14.4139 9.68624 16.2169 9.68515 18.02 9.67804C18.1551 9.67804 18.1999 9.72343 18.1841 9.8503C18.1786 9.89515 18.183 9.94109 18.183 9.98702C18.183 15.0505 18.1813 20.1141 18.1884 25.1776C18.1884 25.4204 18.1359 25.492 17.8822 25.4898C16.1251 25.4745 14.3674 25.4773 12.6098 25.474C12.4807 25.3269 12.519 25.1464 12.519 24.9774C12.5168 22.1025 12.5173 19.2276 12.5173 16.3526C12.5173 14.2876 12.5162 12.2221 12.519 10.1571C12.519 9.99687 12.4856 9.8257 12.6109 9.68843V9.68898Z" fill="#FED33A"/>
<path d="M20.65 2.36525C20.65 10.0669 20.65 17.7691 20.65 25.4707C20.2316 25.4745 19.8127 25.4751 19.3943 25.4838C19.2642 25.4866 19.2106 25.4368 19.221 25.3083C19.2259 25.2449 19.2215 25.1809 19.2215 25.1174C19.2215 17.6515 19.2215 10.1856 19.2221 2.71962C19.2221 2.30947 19.1756 2.35595 19.5847 2.3554C19.9396 2.35486 20.2945 2.36197 20.6494 2.36525H20.65Z" fill="#1A248A"/>
<path d="M5.50203 18.159C6.88563 18.1557 8.26922 18.1552 9.65281 18.1448C9.84695 18.1432 9.81906 18.2574 9.81906 18.3745C9.81906 19.7581 9.81906 21.1422 9.81906 22.5258C9.81906 23.4364 9.81742 24.3464 9.8207 25.2569C9.82125 25.3991 9.82016 25.4893 9.62602 25.4877C8.25172 25.4762 6.87688 25.4767 5.50258 25.4735C5.40359 25.3712 5.4118 25.2399 5.4118 25.1136C5.40961 22.9152 5.40961 20.7167 5.4118 18.5183C5.4118 18.392 5.40414 18.2613 5.50203 18.1585V18.159Z" fill="#FE3D24"/>
<path d="M12.6109 9.68901C12.6098 13.5308 12.6076 17.3721 12.607 21.2139C12.607 22.6341 12.6087 24.0538 12.6098 25.474C12.082 25.4767 11.5537 25.4767 11.026 25.4849C10.8942 25.4871 10.8428 25.439 10.8565 25.311C10.8614 25.2662 10.857 25.2203 10.857 25.1743C10.857 20.1119 10.8587 15.05 10.8516 9.9876C10.8516 9.73878 10.9123 9.66276 11.1638 9.67479C11.6451 9.69776 12.1285 9.68628 12.6109 9.68846V9.68901Z" fill="#997F23"/>
<path d="M5.50188 18.159C5.50188 20.5975 5.50188 23.0355 5.50243 25.474C5.00258 25.4768 4.50219 25.4751 4.00235 25.486C3.84594 25.4893 3.80219 25.4352 3.80274 25.2826C3.80657 22.9721 3.80657 20.6621 3.80274 18.3515C3.80274 18.2 3.8443 18.1437 4.0018 18.147C4.50165 18.1579 5.00204 18.1557 5.50188 18.159Z" fill="#B12B19"/>
<path d="M24.3051 10.2282C24.3051 12.0044 24.3051 13.7807 24.3051 15.5569C24.3051 15.9124 24.0902 16.0672 23.7484 15.9589C23.6368 15.9234 23.5641 15.8424 23.5444 15.7265C23.5335 15.6647 23.54 15.5991 23.54 15.5356C23.54 11.9738 23.54 8.41257 23.54 4.85077C23.54 4.51062 23.615 4.42859 23.9196 4.42804C24.2193 4.42804 24.3046 4.51171 24.3051 4.81796C24.3062 6.45749 24.3051 8.09702 24.3051 9.7371V10.2287V10.2282Z" fill="#FEFEFE"/>
<path d="M23.9421 3.77455C23.679 3.77346 23.5358 3.62143 23.5401 3.34744C23.5445 3.09533 23.6894 2.95642 23.947 2.95697C24.2112 2.95752 24.3621 3.11338 24.3561 3.37916C24.3506 3.62033 24.1876 3.77564 23.9421 3.77455Z" fill="#FDFDFE"/>
<path d="M17.0347 14.0274C17.0347 12.8248 17.0347 11.6222 17.0347 10.4196C17.0347 10.1107 17.1698 9.95917 17.4394 9.95917C17.7025 9.95917 17.8534 10.1227 17.8534 10.4196C17.8545 12.8428 17.8545 15.2666 17.8534 17.6898C17.8534 18.0103 17.7134 18.1579 17.4225 18.1546C17.143 18.1514 17.0342 18.0223 17.0342 17.6898C17.0342 16.4692 17.0342 15.248 17.0342 14.0274H17.0347Z" fill="#FEFEFE"/>
<path d="M17.4709 18.5921C17.7389 18.5943 17.857 18.719 17.8554 18.9979C17.8537 19.2724 17.7066 19.4168 17.437 19.4086C17.2013 19.4015 17.0394 19.2232 17.0482 18.9804C17.0569 18.7376 17.2177 18.5905 17.4704 18.5921H17.4709Z" fill="#FEFEFC"/>
<path d="M9.43549 20.7266C9.43549 21.3276 9.43658 21.9286 9.43549 22.5296C9.43494 22.8277 9.34525 22.9124 9.04283 22.9108C8.76119 22.9091 8.6715 22.8227 8.67096 22.5384C8.66986 21.3276 8.66932 20.1162 8.67096 18.9055C8.67096 18.6233 8.76229 18.538 9.04775 18.5374C9.3365 18.5369 9.43385 18.6233 9.43494 18.8967C9.43768 19.507 9.43549 20.1168 9.43549 20.7271V20.7266Z" fill="#FEFEFE"/>
<path d="M8.66992 23.7486C8.66992 23.4538 8.77055 23.3477 9.05055 23.3483C9.32617 23.3483 9.43555 23.4626 9.43609 23.7475C9.43609 24.0258 9.31195 24.1598 9.05219 24.1609C8.79023 24.162 8.66992 24.0324 8.66992 23.7486Z" fill="#FEFCFC"/>
</svg>
