<svg width="32" height="32" viewBox="0 0 32 32" fill="none" xmlns="http://www.w3.org/2000/svg">
<path fill-rule="evenodd" clip-rule="evenodd" d="M16.0007 4.00016C9.37323 4.00016 4.00065 9.37274 4.00065 16.0002C4.00065 22.6276 9.37323 28.0002 16.0007 28.0002C22.6281 28.0002 28.0006 22.6276 28.0006 16.0002C28.0006 9.37274 22.6281 4.00016 16.0007 4.00016ZM1.33398 16.0002C1.33398 7.89999 7.90047 1.3335 16.0007 1.3335C24.1008 1.3335 30.6673 7.89999 30.6673 16.0002C30.6673 24.1003 24.1008 30.6668 16.0007 30.6668C7.90047 30.6668 1.33398 24.1003 1.33398 16.0002ZM22.9435 11.0574C23.4642 11.5781 23.4642 12.4223 22.9435 12.943L14.9435 20.943C14.4228 21.4637 13.5785 21.4637 13.0578 20.943L9.05784 16.943C8.53714 16.4223 8.53714 15.5781 9.05784 15.0574C9.57854 14.5367 10.4228 14.5367 10.9435 15.0574L14.0007 18.1145L21.0578 11.0574C21.5785 10.5367 22.4228 10.5367 22.9435 11.0574Z" fill="url(#paint0_linear_23305_8938)"/>
<defs>
<linearGradient id="paint0_linear_23305_8938" x1="16.0007" y1="1.3335" x2="16.0007" y2="30.6668" gradientUnits="userSpaceOnUse">
<stop stop-color="#FFEE61"/>
<stop offset="1" stop-color="#FFCE3C"/>
</linearGradient>
</defs>
</svg>
