<svg width="32" height="32" viewBox="0 0 32 32" fill="none" xmlns="http://www.w3.org/2000/svg">
<path fill-rule="evenodd" clip-rule="evenodd" d="M16.0007 3.99992C9.37323 3.99992 4.00065 9.3725 4.00065 15.9999C4.00065 22.6273 9.37323 27.9999 16.0007 27.9999C22.6281 27.9999 28.0006 22.6273 28.0006 15.9999C28.0006 9.3725 22.6281 3.99992 16.0007 3.99992ZM1.33398 15.9999C1.33398 7.89974 7.90047 1.33325 16.0007 1.33325C24.1008 1.33325 30.6673 7.89974 30.6673 15.9999C30.6673 24.1001 24.1008 30.6666 16.0007 30.6666C7.90047 30.6666 1.33398 24.1001 1.33398 15.9999ZM16.0007 6.66658C16.737 6.66658 17.334 7.26354 17.334 7.99992V15.1759L21.9303 17.474C22.5889 17.8033 22.8559 18.6042 22.5266 19.2629C22.1972 19.9215 21.3963 20.1885 20.7377 19.8592L15.4044 17.1925C14.9527 16.9666 14.6673 16.5049 14.6673 15.9999V7.99992C14.6673 7.26354 15.2643 6.66658 16.0007 6.66658Z" fill="white"/>
</svg>
