<svg width="20" height="20" viewBox="0 0 20 20" fill="none" xmlns="http://www.w3.org/2000/svg">
<g clip-path="url(#clip0_23547_1384)">
<path fill-rule="evenodd" clip-rule="evenodd" d="M9.99967 2.49967C5.85754 2.49967 2.49967 5.85754 2.49967 9.99967C2.49967 14.1418 5.85754 17.4997 9.99967 17.4997C14.1418 17.4997 17.4997 14.1418 17.4997 9.99967C17.4997 5.85754 14.1418 2.49967 9.99967 2.49967ZM0.833008 9.99967C0.833008 4.93706 4.93706 0.833008 9.99967 0.833008C15.0623 0.833008 19.1663 4.93706 19.1663 9.99967C19.1663 15.0623 15.0623 19.1663 9.99967 19.1663C4.93706 19.1663 0.833008 15.0623 0.833008 9.99967ZM10.2148 6.68661C9.82684 6.62006 9.42787 6.69297 9.08854 6.8924C8.7492 7.09183 8.4914 7.40491 8.36079 7.77621C8.20806 8.21037 7.7323 8.43851 7.29814 8.28579C6.86398 8.13306 6.63584 7.6573 6.78856 7.22314C7.04979 6.48055 7.5654 5.85437 8.24407 5.45551C8.92274 5.05665 9.72067 4.91085 10.4965 5.04393C11.2724 5.17701 11.9761 5.58039 12.4831 6.18261C12.99 6.78484 13.2675 7.54705 13.2663 8.33425L12.433 8.33301H13.2663C13.2663 8.33342 13.2663 8.33383 13.2663 8.33425C13.2657 9.60927 12.3204 10.4513 11.6453 10.9014C11.2822 11.1434 10.9251 11.3214 10.6621 11.4383C10.5294 11.4972 10.4176 11.542 10.3371 11.5727C10.2968 11.588 10.2641 11.6 10.2403 11.6084C10.2284 11.6127 10.2187 11.616 10.2113 11.6186L10.2021 11.6217L10.1989 11.6228L10.197 11.6234C10.1968 11.6235 10.1965 11.6236 9.93301 10.833L9.66948 10.0424C9.66934 10.0425 9.66919 10.0425 9.66905 10.0426L9.68191 10.0381C9.69473 10.0335 9.71574 10.0259 9.74377 10.0152C9.79996 9.9938 9.88352 9.96043 9.98518 9.91525C10.1909 9.82383 10.4588 9.68928 10.7208 9.51463C11.2954 9.13152 11.5997 8.72395 11.5997 8.33301L11.5997 8.33177C11.6003 7.93817 11.4615 7.55706 11.2081 7.25595C10.9546 6.95483 10.6027 6.75315 10.2148 6.68661ZM9.66784 10.043C9.23228 10.1892 8.99708 10.6605 9.14244 11.0965C9.28798 11.5331 9.75991 11.7691 10.1965 11.6236L9.93301 10.833C9.66948 10.0424 9.66926 10.0425 9.66905 10.0426L9.66784 10.043C9.66789 10.043 9.66774 10.043 9.66784 10.043ZM9.16634 14.1663C9.16634 13.7061 9.53944 13.333 9.99967 13.333H10.008C10.4682 13.333 10.8413 13.7061 10.8413 14.1663C10.8413 14.6266 10.4682 14.9997 10.008 14.9997H9.99967C9.53944 14.9997 9.16634 14.6266 9.16634 14.1663Z" fill="white"/>
</g>
<defs>
<clipPath id="clip0_23547_1384">
<rect width="20" height="20" fill="white"/>
</clipPath>
</defs>
</svg>
