<svg width="32" height="32" viewBox="0 0 32 32" fill="none" xmlns="http://www.w3.org/2000/svg">
<path fill-rule="evenodd" clip-rule="evenodd" d="M8 10.6667C8 6.24847 11.5817 2.66675 16 2.66675C20.4183 2.66675 24 6.24847 24 10.6667V12.2005C24.3768 12.2831 24.7385 12.4033 25.088 12.5814C26.0915 13.0927 26.9074 13.9086 27.4187 14.9121C27.7484 15.5592 27.8798 16.2482 27.9411 16.9976C28 17.7192 28 18.605 28 19.6783V21.6552C28 22.7285 28 23.6143 27.9411 24.3358C27.8798 25.0853 27.7484 25.7743 27.4187 26.4214C26.9074 27.4249 26.0915 28.2408 25.088 28.7521C24.4408 29.0818 23.7519 29.2133 23.0024 29.2745C22.2808 29.3334 21.395 29.3334 20.3218 29.3334H11.6782C10.605 29.3334 9.71915 29.3334 8.99757 29.2745C8.2481 29.2133 7.55917 29.0818 6.91205 28.7521C5.90852 28.2408 5.09262 27.4249 4.5813 26.4214C4.25158 25.7743 4.12016 25.0853 4.05893 24.3358C3.99997 23.6143 3.99998 22.7284 4 21.6551V19.6784C3.99998 18.6051 3.99997 17.7192 4.05893 16.9976C4.12016 16.2482 4.25158 15.5592 4.5813 14.9121C5.09262 13.9086 5.90852 13.0927 6.91205 12.5814C7.26152 12.4033 7.62319 12.2831 8 12.2005V10.6667ZM10.6667 12.0022C10.9836 12.0001 11.3205 12.0001 11.6783 12.0001H20.3217C20.6795 12.0001 21.0164 12.0001 21.3333 12.0022V10.6667C21.3333 7.72123 18.9455 5.33341 16 5.33341C13.0545 5.33341 10.6667 7.72123 10.6667 10.6667V12.0022ZM9.21472 14.7168C8.63017 14.7646 8.33123 14.8511 8.12269 14.9574C7.62093 15.2131 7.21298 15.621 6.95732 16.1228C6.85106 16.3313 6.7645 16.6302 6.71674 17.2148C6.6677 17.8149 6.66667 18.5913 6.66667 19.7334V21.6001C6.66667 22.7422 6.66771 23.5186 6.71674 24.1187C6.7645 24.7033 6.85106 25.0022 6.95732 25.2107C7.21298 25.7125 7.62093 26.1204 8.12269 26.3761C8.33123 26.4824 8.63017 26.5689 9.21472 26.6167C9.81484 26.6657 10.5912 26.6667 11.7333 26.6667H20.2667C21.4088 26.6667 22.1852 26.6657 22.7853 26.6167C23.3698 26.5689 23.6688 26.4824 23.8773 26.3761C24.3791 26.1204 24.787 25.7125 25.0427 25.2107C25.1489 25.0022 25.2355 24.7033 25.2833 24.1187C25.3323 23.5186 25.3333 22.7422 25.3333 21.6001V19.7334C25.3333 18.5913 25.3323 17.8149 25.2833 17.2148C25.2355 16.6302 25.1489 16.3313 25.0427 16.1228C24.787 15.621 24.3791 15.2131 23.8773 14.9574C23.6688 14.8511 23.3698 14.7646 22.7853 14.7168C22.1852 14.6678 21.4088 14.6667 20.2667 14.6667H11.7333C10.5912 14.6667 9.81484 14.6678 9.21472 14.7168ZM16 18.0001C16.7364 18.0001 17.3333 18.597 17.3333 19.3334V22.0001C17.3333 22.7365 16.7364 23.3334 16 23.3334C15.2636 23.3334 14.6667 22.7365 14.6667 22.0001V19.3334C14.6667 18.597 15.2636 18.0001 16 18.0001Z" fill="white"/>
</svg>
